<svg width="272" height="58" viewBox="0 0 272 58" fill="none" xmlns="http://www.w3.org/2000/svg">
<path d="M11.7695 7.61914V15.8398H15.7002C17.0329 15.8398 18.0811 15.4655 18.8447 14.7168C19.6234 13.9681 20.0127 12.9798 20.0127 11.752C20.0127 10.5391 19.6159 9.55078 18.8223 8.78711C18.0286 8.00846 16.9954 7.61914 15.7227 7.61914H11.7695ZM11.7695 22.1289V33H2.24609V0.588867H16.6436C20.9261 0.588867 24.1755 1.5472 26.3916 3.46387C28.6227 5.38053 29.7383 8.09082 29.7383 11.5947C29.7383 13.5563 29.2741 15.3682 28.3457 17.0303C27.4323 18.6924 26.152 19.9202 24.5049 20.7139L30.6592 33H20.0127L14.8916 22.1289H11.7695ZM45.0342 33.6289C40.9613 33.6289 37.7718 32.4984 35.4658 30.2373C33.1598 27.9613 32.0068 24.7419 32.0068 20.5791C32.0068 16.5212 33.1748 13.3392 35.5107 11.0332C37.8617 8.72721 41.0361 7.57422 45.0342 7.57422C49.0622 7.57422 52.2441 8.72721 54.5801 11.0332C56.916 13.3242 58.084 16.5062 58.084 20.5791C58.084 24.7419 56.931 27.9613 54.625 30.2373C52.319 32.4984 49.1221 33.6289 45.0342 33.6289ZM45.0342 27.0479C46.1872 27.0479 47.0931 26.4863 47.752 25.3633C48.4108 24.2402 48.7402 22.653 48.7402 20.6016C48.7402 18.5951 48.4033 17.0228 47.7295 15.8848C47.0706 14.7318 46.1722 14.1553 45.0342 14.1553C43.8962 14.1553 42.9977 14.7318 42.3389 15.8848C41.68 17.0228 41.3506 18.5951 41.3506 20.6016C41.3506 22.668 41.6725 24.2627 42.3164 25.3857C42.9603 26.4938 43.8662 27.0479 45.0342 27.0479ZM86.2275 8.20312V33H77.2432V28.126H77.0635C76.5544 29.848 75.7083 31.1732 74.5254 32.1016C73.3574 33.0299 71.8675 33.4941 70.0557 33.4941C67.3304 33.4941 65.1068 32.6556 63.3848 30.9785C61.6777 29.2865 60.8242 26.9954 60.8242 24.1055V8.20312H70.0332V22.0391C70.0332 23.3268 70.3551 24.3226 70.999 25.0264C71.6429 25.7152 72.5114 26.0596 73.6045 26.0596C74.6377 26.0596 75.4613 25.6927 76.0752 24.959C76.7041 24.2253 77.0186 23.2594 77.0186 22.0615V8.20312H86.2275ZM89.6865 33V8.20312H98.6709V13.0771H98.8506C99.4795 11.3252 100.438 9.99251 101.726 9.0791C103.013 8.16569 104.593 7.70898 106.465 7.70898C109.235 7.70898 111.361 8.53255 112.844 10.1797C114.341 11.8118 115.09 14.1253 115.09 17.1201V33H105.881V19.1641C105.881 17.8913 105.581 16.903 104.982 16.1992C104.398 15.4954 103.537 15.1436 102.399 15.1436C101.321 15.1436 100.468 15.5179 99.8389 16.2666C99.21 17.0003 98.8955 17.9587 98.8955 19.1416V33H89.6865ZM127.466 33.3594C124.411 33.3594 122.038 32.2363 120.346 29.9902C118.654 27.7292 117.808 24.5771 117.808 20.5342C117.808 16.5511 118.669 13.444 120.391 11.2129C122.128 8.9668 124.538 7.84375 127.623 7.84375C129.39 7.84375 130.917 8.29297 132.205 9.19141C133.508 10.0749 134.406 11.2354 134.9 12.6729H135.08V0.588867H144.289V33H135.08V28.71H134.9C134.466 30.0426 133.568 31.1507 132.205 32.0342C130.857 32.9176 129.278 33.3594 127.466 33.3594ZM134.069 16.4463C133.366 15.443 132.4 14.9414 131.172 14.9414C129.944 14.9414 128.978 15.4505 128.274 16.4688C127.586 17.472 127.241 18.8496 127.241 20.6016C127.241 22.3835 127.586 23.776 128.274 24.7793C128.963 25.7676 129.929 26.2617 131.172 26.2617C132.415 26.2617 133.381 25.7676 134.069 24.7793C134.773 23.791 135.125 22.4059 135.125 20.624C135.125 18.8421 134.773 17.4495 134.069 16.4463ZM166.57 7.61914V15.8398H170.501C171.834 15.8398 172.882 15.4655 173.646 14.7168C174.424 13.9681 174.813 12.9798 174.813 11.752C174.813 10.5391 174.417 9.55078 173.623 8.78711C172.829 8.00846 171.796 7.61914 170.523 7.61914H166.57ZM166.57 22.1289V33H157.047V0.588867H171.444C175.727 0.588867 178.976 1.5472 181.192 3.46387C183.424 5.38053 184.539 8.09082 184.539 11.5947C184.539 13.5563 184.075 15.3682 183.146 17.0303C182.233 18.6924 180.953 19.9202 179.306 20.7139L185.46 33H174.813L169.692 22.1289H166.57ZM199.835 33.6289C195.762 33.6289 192.573 32.4984 190.267 30.2373C187.961 27.9613 186.808 24.7419 186.808 20.5791C186.808 16.5212 187.976 13.3392 190.312 11.0332C192.662 8.72721 195.837 7.57422 199.835 7.57422C203.863 7.57422 207.045 8.72721 209.381 11.0332C211.717 13.3242 212.885 16.5062 212.885 20.5791C212.885 24.7419 211.732 27.9613 209.426 30.2373C207.12 32.4984 203.923 33.6289 199.835 33.6289ZM199.835 27.0479C200.988 27.0479 201.894 26.4863 202.553 25.3633C203.212 24.2402 203.541 22.653 203.541 20.6016C203.541 18.5951 203.204 17.0228 202.53 15.8848C201.871 14.7318 200.973 14.1553 199.835 14.1553C198.697 14.1553 197.799 14.7318 197.14 15.8848C196.481 17.0228 196.151 18.5951 196.151 20.6016C196.151 22.668 196.473 24.2627 197.117 25.3857C197.761 26.4938 198.667 27.0479 199.835 27.0479ZM240.085 18.4678H231.707C231.617 17.2249 231.25 16.2441 230.606 15.5254C229.963 14.7917 229.146 14.4248 228.158 14.4248C226.945 14.4248 226.017 14.9489 225.373 15.9971C224.744 17.0452 224.43 18.5726 224.43 20.5791C224.43 22.6006 224.744 24.1429 225.373 25.2061C226.002 26.2542 226.93 26.7783 228.158 26.7783C229.191 26.7783 230.022 26.4414 230.651 25.7676C231.28 25.0788 231.632 24.1204 231.707 22.8926H240.085C240.04 26.2467 238.947 28.8747 236.806 30.7764C234.664 32.6781 231.744 33.6289 228.046 33.6289C224.018 33.6289 220.851 32.4759 218.545 30.1699C216.254 27.849 215.108 24.652 215.108 20.5791C215.108 16.5361 216.254 13.3617 218.545 11.0557C220.851 8.7347 224.003 7.57422 228.001 7.57422C231.625 7.57422 234.53 8.55501 236.716 10.5166C238.902 12.4782 240.025 15.1286 240.085 18.4678ZM252.326 17.165L258.346 8.20312H268.476L260.232 18.7822L269.06 33H258.48L253.359 24.2852L252.146 25.9023V33H242.938V0.588867H252.146V17.165H252.326ZM12.7969 54H9.07031V49.0957H4.60547V54H0.878906V41.3174H4.60547V46.1338H9.07031V41.3174H12.7969V54ZM24.4958 51.7324C24.9118 51.7324 25.2722 51.627 25.5769 51.416C25.8816 51.1992 26.0339 50.918 26.0339 50.5723V49.9395L24.5046 50.0449C24.1648 50.0684 23.9011 50.1562 23.7136 50.3086C23.5261 50.4609 23.4323 50.6572 23.4323 50.8975C23.4323 51.1553 23.529 51.3604 23.7224 51.5127C23.9157 51.6592 24.1736 51.7324 24.4958 51.7324ZM23.1511 54.1406C22.2488 54.1406 21.4782 53.8623 20.8396 53.3057C20.2009 52.7432 19.8816 52.0342 19.8816 51.1787C19.8816 50.2529 20.2243 49.5381 20.9099 49.0342C21.6013 48.5244 22.6003 48.2285 23.907 48.1465L26.0339 48.0146V47.54C26.0339 47.2236 25.9255 46.9775 25.7087 46.8018C25.4919 46.626 25.2107 46.5381 24.865 46.5381C24.5075 46.5381 24.2146 46.623 23.9861 46.793C23.7575 46.9629 23.6286 47.1768 23.5993 47.4346H20.3825C20.4294 46.3916 20.8689 45.5684 21.7009 44.9648C22.5329 44.3555 23.6521 44.0508 25.0583 44.0508C26.4001 44.0508 27.4841 44.3584 28.3103 44.9736C29.1364 45.583 29.5495 46.3799 29.5495 47.3643V54H26.0339V52.6992H25.9636C25.7175 53.1562 25.3337 53.5107 24.8122 53.7627C24.2966 54.0146 23.7429 54.1406 23.1511 54.1406ZM36.9418 54V44.2969H40.4575V46.2041H40.5278C40.7739 45.5186 41.1489 44.9971 41.6528 44.6396C42.1567 44.2822 42.7748 44.1035 43.5073 44.1035C44.5913 44.1035 45.4233 44.4258 46.0034 45.0703C46.5893 45.709 46.8823 46.6143 46.8823 47.7861V54H43.2788V48.5859C43.2788 48.0879 43.1616 47.7012 42.9272 47.4258C42.6987 47.1504 42.3618 47.0127 41.9164 47.0127C41.4946 47.0127 41.1606 47.1592 40.9145 47.4521C40.6684 47.7393 40.5454 48.1143 40.5454 48.5771V54H36.9418ZM57.755 54.1406C56.5597 54.1406 55.631 53.7012 54.9689 52.8223C54.3068 51.9375 53.9757 50.7041 53.9757 49.1221C53.9757 47.5635 54.3127 46.3477 54.9865 45.4746C55.6662 44.5957 56.6095 44.1562 57.8166 44.1562C58.508 44.1562 59.1056 44.332 59.6095 44.6836C60.1193 45.0293 60.4709 45.4834 60.6642 46.0459H60.7345V41.3174H64.338V54H60.7345V52.3213H60.6642C60.4943 52.8428 60.1427 53.2764 59.6095 53.6221C59.0822 53.9678 58.464 54.1406 57.755 54.1406ZM60.339 47.5225C60.0636 47.1299 59.6857 46.9336 59.2052 46.9336C58.7248 46.9336 58.3468 47.1328 58.0714 47.5312C57.8019 47.9238 57.6671 48.4629 57.6671 49.1484C57.6671 49.8457 57.8019 50.3906 58.0714 50.7832C58.341 51.1699 58.7189 51.3633 59.2052 51.3633C59.6916 51.3633 60.0695 51.1699 60.339 50.7832C60.6144 50.3965 60.7521 49.8545 60.7521 49.1572C60.7521 48.46 60.6144 47.915 60.339 47.5225ZM73.3827 57.5596H72.0995V54.8789H72.7938C73.3036 54.8789 73.6757 54.8291 73.91 54.7295C74.1503 54.6357 74.2704 54.4805 74.2704 54.2637C74.2704 54.1758 74.2557 54.0879 74.2264 54L71.0448 44.2969H75.0438L76.5204 51.416H76.5907L78.0585 44.2969H81.8641L78.9725 53.7715C78.5624 55.1191 77.9208 56.0859 77.0477 56.6719C76.1805 57.2637 74.9589 57.5596 73.3827 57.5596ZM88.5709 54V44.2969H92.0865V46.2568H92.1568C92.3385 45.6006 92.6813 45.0791 93.1852 44.6924C93.6891 44.2998 94.2721 44.1035 94.9342 44.1035C95.6725 44.1035 96.276 44.291 96.7447 44.666C97.2193 45.0352 97.5152 45.5596 97.6324 46.2393H97.7027C97.8668 45.5947 98.2184 45.0791 98.7574 44.6924C99.3023 44.2998 99.9439 44.1035 100.682 44.1035C101.626 44.1035 102.393 44.4141 102.985 45.0352C103.577 45.6504 103.873 46.4531 103.873 47.4434V54H100.269V48.375C100.269 47.4551 99.8766 46.9951 99.0914 46.9951C98.7281 46.9951 98.4439 47.1182 98.2389 47.3643C98.0338 47.6045 97.9313 47.9385 97.9313 48.3662V54H94.5123V48.3838C94.5123 47.458 94.1227 46.9951 93.3434 46.9951C92.9801 46.9951 92.693 47.1182 92.482 47.3643C92.277 47.6104 92.1744 47.9443 92.1744 48.3662V54H88.5709ZM115.484 51.7324C115.9 51.7324 116.26 51.627 116.565 51.416C116.869 51.1992 117.022 50.918 117.022 50.5723V49.9395L115.493 50.0449C115.153 50.0684 114.889 50.1562 114.701 50.3086C114.514 50.4609 114.42 50.6572 114.42 50.8975C114.42 51.1553 114.517 51.3604 114.71 51.5127C114.904 51.6592 115.161 51.7324 115.484 51.7324ZM114.139 54.1406C113.237 54.1406 112.466 53.8623 111.827 53.3057C111.189 52.7432 110.869 52.0342 110.869 51.1787C110.869 50.2529 111.212 49.5381 111.898 49.0342C112.589 48.5244 113.588 48.2285 114.895 48.1465L117.022 48.0146V47.54C117.022 47.2236 116.913 46.9775 116.697 46.8018C116.48 46.626 116.199 46.5381 115.853 46.5381C115.495 46.5381 115.202 46.623 114.974 46.793C114.745 46.9629 114.617 47.1768 114.587 47.4346H111.37C111.417 46.3916 111.857 45.5684 112.689 44.9648C113.521 44.3555 114.64 44.0508 116.046 44.0508C117.388 44.0508 118.472 44.3584 119.298 44.9736C120.124 45.583 120.537 46.3799 120.537 47.3643V54H117.022V52.6992H116.951C116.705 53.1562 116.322 53.5107 115.8 53.7627C115.284 54.0146 114.731 54.1406 114.139 54.1406ZM127.93 54V44.2969H131.445V46.2041H131.516C131.762 45.5186 132.137 44.9971 132.641 44.6396C133.145 44.2822 133.763 44.1035 134.495 44.1035C135.579 44.1035 136.411 44.4258 136.991 45.0703C137.577 45.709 137.87 46.6143 137.87 47.7861V54H134.267V48.5859C134.267 48.0879 134.149 47.7012 133.915 47.4258C133.687 47.1504 133.35 47.0127 132.904 47.0127C132.482 47.0127 132.148 47.1592 131.902 47.4521C131.656 47.7393 131.533 48.1143 131.533 48.5771V54H127.93ZM154.5 47.3115C154.5 46.2979 154.905 45.501 155.713 44.9209C156.522 44.3408 157.632 44.0508 159.044 44.0508C160.462 44.0508 161.57 44.3496 162.367 44.9473C163.169 45.5449 163.571 46.374 163.571 47.4346H160.301C160.301 47.1182 160.184 46.8691 159.95 46.6875C159.721 46.5 159.411 46.4062 159.018 46.4062C158.696 46.4062 158.435 46.4678 158.236 46.5908C158.042 46.708 157.946 46.8691 157.946 47.0742C157.946 47.3789 158.259 47.5898 158.886 47.707L161.075 48.1377C162.036 48.3252 162.739 48.6357 163.184 49.0693C163.635 49.4971 163.861 50.0801 163.861 50.8184C163.861 51.8672 163.427 52.7021 162.56 53.3232C161.699 53.9385 160.553 54.2461 159.124 54.2461C157.629 54.2461 156.463 53.9443 155.625 53.3408C154.793 52.7314 154.345 51.9023 154.281 50.8535H157.761C157.796 51.1758 157.937 51.4307 158.183 51.6182C158.435 51.7998 158.763 51.8906 159.167 51.8906C159.519 51.8906 159.794 51.835 159.994 51.7236C160.193 51.6064 160.292 51.4482 160.292 51.249C160.292 51.0967 160.222 50.9736 160.082 50.8799C159.941 50.7803 159.707 50.7012 159.378 50.6426L157.506 50.2734C156.528 50.0801 155.781 49.7314 155.265 49.2275C154.755 48.7178 154.5 48.0791 154.5 47.3115ZM175.648 46.5293C175.238 46.5293 174.892 46.6641 174.611 46.9336C174.329 47.2031 174.171 47.5459 174.136 47.9619H177.159C177.13 47.5283 176.975 47.1826 176.694 46.9248C176.418 46.6611 176.07 46.5293 175.648 46.5293ZM177.265 50.8535H180.473C180.321 51.9023 179.817 52.7314 178.961 53.3408C178.106 53.9443 177.013 54.2461 175.683 54.2461C174.095 54.2461 172.853 53.8008 171.956 52.9102C171.06 52.0137 170.612 50.7773 170.612 49.2012C170.612 47.6133 171.057 46.3594 171.947 45.4395C172.838 44.5137 174.045 44.0508 175.569 44.0508C177.074 44.0508 178.276 44.4961 179.172 45.3867C180.069 46.2715 180.517 47.4551 180.517 48.9375V49.9131H174.083V50.1416C174.083 50.6162 174.238 51.0088 174.549 51.3193C174.86 51.624 175.255 51.7764 175.736 51.7764C176.105 51.7764 176.424 51.6943 176.694 51.5303C176.969 51.3662 177.159 51.1406 177.265 50.8535ZM187.645 54V44.2969H191.161V46.2041H191.231C191.595 44.8389 192.351 44.1562 193.499 44.1562C193.809 44.1562 194.091 44.2031 194.343 44.2969V47.3203C194.026 47.1855 193.678 47.1182 193.297 47.1182C191.932 47.1182 191.249 47.8008 191.249 49.166V54H187.645ZM210.955 44.2969L207.843 54H203.616L200.461 44.2969H204.345L205.752 51.0908H205.822L207.184 44.2969H210.955ZM217.565 54V44.2969H221.168V54H217.565ZM220.641 43.2773C220.301 43.5996 219.876 43.7607 219.367 43.7607C218.857 43.7607 218.429 43.5996 218.083 43.2773C217.744 42.9492 217.574 42.542 217.574 42.0557C217.574 41.5693 217.744 41.165 218.083 40.8428C218.429 40.5146 218.857 40.3506 219.367 40.3506C219.876 40.3506 220.301 40.5146 220.641 40.8428C220.987 41.165 221.16 41.5693 221.16 42.0557C221.16 42.542 220.987 42.9492 220.641 43.2773ZM238.079 48.3135H234.801C234.766 47.8271 234.622 47.4434 234.37 47.1621C234.118 46.875 233.799 46.7314 233.412 46.7314C232.938 46.7314 232.574 46.9365 232.322 47.3467C232.076 47.7568 231.953 48.3545 231.953 49.1396C231.953 49.9307 232.076 50.5342 232.322 50.9502C232.568 51.3604 232.932 51.5654 233.412 51.5654C233.816 51.5654 234.142 51.4336 234.388 51.1699C234.634 50.9004 234.772 50.5254 234.801 50.0449H238.079C238.062 51.3574 237.634 52.3857 236.796 53.1299C235.958 53.874 234.816 54.2461 233.368 54.2461C231.792 54.2461 230.553 53.7949 229.65 52.8926C228.754 51.9844 228.306 50.7334 228.306 49.1396C228.306 47.5576 228.754 46.3154 229.65 45.4131C230.553 44.5049 231.786 44.0508 233.351 44.0508C234.769 44.0508 235.905 44.4346 236.761 45.2021C237.616 45.9697 238.056 47.0068 238.079 48.3135ZM249.971 46.5293C249.561 46.5293 249.216 46.6641 248.934 46.9336C248.653 47.2031 248.495 47.5459 248.46 47.9619H251.483C251.454 47.5283 251.299 47.1826 251.017 46.9248C250.742 46.6611 250.393 46.5293 249.971 46.5293ZM251.589 50.8535H254.797C254.644 51.9023 254.14 52.7314 253.285 53.3408C252.429 53.9443 251.337 54.2461 250.007 54.2461C248.419 54.2461 247.177 53.8008 246.28 52.9102C245.384 52.0137 244.935 50.7773 244.935 49.2012C244.935 47.6133 245.381 46.3594 246.271 45.4395C247.162 44.5137 248.369 44.0508 249.892 44.0508C251.398 44.0508 252.599 44.4961 253.496 45.3867C254.392 46.2715 254.841 47.4551 254.841 48.9375V49.9131H248.407V50.1416C248.407 50.6162 248.562 51.0088 248.873 51.3193C249.183 51.624 249.579 51.7764 250.059 51.7764C250.429 51.7764 250.748 51.6943 251.017 51.5303C251.293 51.3662 251.483 51.1406 251.589 50.8535ZM261.802 47.3115C261.802 46.2979 262.207 45.501 263.015 44.9209C263.824 44.3408 264.934 44.0508 266.346 44.0508C267.764 44.0508 268.872 44.3496 269.668 44.9473C270.471 45.5449 270.873 46.374 270.873 47.4346H267.603C267.603 47.1182 267.486 46.8691 267.251 46.6875C267.023 46.5 266.712 46.4062 266.32 46.4062C265.998 46.4062 265.737 46.4678 265.538 46.5908C265.344 46.708 265.248 46.8691 265.248 47.0742C265.248 47.3789 265.561 47.5898 266.188 47.707L268.376 48.1377C269.337 48.3252 270.041 48.6357 270.486 49.0693C270.937 49.4971 271.163 50.0801 271.163 50.8184C271.163 51.8672 270.729 52.7021 269.862 53.3232C269.001 53.9385 267.855 54.2461 266.425 54.2461C264.931 54.2461 263.765 53.9443 262.927 53.3408C262.095 52.7314 261.647 51.9023 261.583 50.8535H265.063C265.098 51.1758 265.239 51.4307 265.485 51.6182C265.737 51.7998 266.065 51.8906 266.469 51.8906C266.821 51.8906 267.096 51.835 267.295 51.7236C267.495 51.6064 267.594 51.4482 267.594 51.249C267.594 51.0967 267.524 50.9736 267.383 50.8799C267.243 50.7803 267.008 50.7012 266.68 50.6426L264.808 50.2734C263.83 50.0801 263.083 49.7314 262.567 49.2275C262.057 48.7178 261.802 48.0791 261.802 47.3115Z" fill="white"/>
</svg>
