<?xml version="1.0" encoding="UTF-8"?>
<svg xmlns="http://www.w3.org/2000/svg" xmlns:xlink="http://www.w3.org/1999/xlink" width="300px" height="64px" viewBox="0 0 66 14" version="1.1">
<defs>
<clipPath id="clip1">
  <path d="M 0 0 L 21.230469 0 L 21.230469 14 L 0 14 Z M 0 0 "/>
</clipPath>
<clipPath id="clip2">
  <path d="M 21.230469 0 L 66 0 L 66 9.554688 L 21.230469 9.554688 Z M 21.230469 0 "/>
</clipPath>
</defs>
<g id="surface1">
<g clip-path="url(#clip1)" clip-rule="nonzero">
<path style=" stroke:none;fill-rule:nonzero;fill:rgb(100%,100%,100%);fill-opacity:1;" d="M 20.9375 2.011719 L 18.761719 3.445312 L 18.234375 2.664062 L 20.410156 1.226562 L 20.117188 0.789062 L 18.148438 0.402344 L 16.476562 1.5 L 16.078125 3.453125 L 16.097656 3.480469 L 15.238281 4.023438 C 15.167969 3.957031 15.09375 3.894531 15.019531 3.832031 C 15.09375 3.472656 14.878906 3.074219 14.507812 2.902344 C 14.210938 2.765625 13.886719 2.796875 13.660156 2.964844 C 13.007812 2.648438 12.308594 2.4375 11.585938 2.34375 C 11.519531 2.175781 11.402344 2.035156 11.253906 1.933594 C 11.105469 1.828125 10.929688 1.773438 10.746094 1.769531 C 10.335938 1.757812 9.972656 1.996094 9.835938 2.34375 C 9.117188 2.4375 8.414062 2.648438 7.761719 2.96875 C 7.535156 2.800781 7.210938 2.765625 6.917969 2.902344 C 6.546875 3.078125 6.335938 3.472656 6.40625 3.832031 C 6.328125 3.898438 6.25 3.960938 6.175781 4.03125 L 5.304688 3.476562 L 5.457031 3.25 L 4.984375 2.636719 C 5.53125 2.050781 6.234375 1.628906 7.007812 1.414062 L 7.320312 1.328125 L 6.609375 0 L 6.425781 0.03125 C 4.117188 0.402344 2.414062 1.484375 1.371094 3.257812 L 1.316406 3.351562 L 1.34375 3.453125 C 1.484375 3.96875 1.515625 4.304688 1.507812 4.519531 L 1.132812 4.273438 L 0 5.96875 L 2.117188 7.367188 L 3.25 5.671875 L 2.859375 5.414062 C 3.167969 5.253906 3.519531 5.203125 3.925781 5.265625 L 4.085938 5.289062 L 4.234375 5.070312 L 4.894531 5.519531 C 4.300781 6.425781 3.90625 7.445312 3.734375 8.507812 C 3.507812 8.597656 3.132812 8.792969 3.089844 9.148438 C 3.027344 9.628906 3.632812 9.96875 3.828125 10.078125 C 4.195312 10.285156 4.46875 10.425781 4.667969 10.527344 L 4.84375 10.617188 L 3.140625 11.695312 C 2.804688 11.90625 2.570312 12.222656 2.5 12.5625 C 2.472656 12.679688 2.46875 12.800781 2.488281 12.921875 C 2.511719 13.042969 2.554688 13.15625 2.621094 13.257812 L 2.851562 13.597656 C 2.921875 13.699219 3.007812 13.785156 3.113281 13.847656 C 3.214844 13.914062 3.332031 13.957031 3.453125 13.976562 C 3.527344 13.992188 3.601562 14 3.675781 14 C 3.972656 13.992188 4.261719 13.898438 4.503906 13.726562 L 6.546875 12.332031 C 6.71875 12.441406 6.898438 12.53125 7.085938 12.601562 C 7.886719 12.917969 9.035156 13.0625 10.703125 13.0625 C 12.371094 13.0625 13.519531 12.917969 14.316406 12.601562 C 14.503906 12.53125 14.6875 12.441406 14.855469 12.332031 L 16.894531 13.726562 C 17.136719 13.898438 17.429688 13.992188 17.726562 14 C 17.800781 14 17.875 13.992188 17.949219 13.976562 C 18.070312 13.957031 18.183594 13.914062 18.289062 13.847656 C 18.390625 13.78125 18.480469 13.699219 18.550781 13.597656 L 18.78125 13.257812 C 18.847656 13.152344 18.890625 13.039062 18.910156 12.921875 C 18.933594 12.800781 18.929688 12.679688 18.902344 12.558594 C 18.828125 12.222656 18.597656 11.90625 18.261719 11.695312 L 16.558594 10.613281 C 16.613281 10.585938 16.671875 10.558594 16.738281 10.523438 C 16.9375 10.421875 17.210938 10.28125 17.578125 10.078125 C 17.773438 9.964844 18.378906 9.628906 18.316406 9.144531 C 18.273438 8.800781 17.917969 8.605469 17.691406 8.515625 C 17.515625 7.441406 17.121094 6.417969 16.523438 5.507812 L 17.167969 5.070312 L 17.191406 5.109375 L 19.164062 5.5 L 20.835938 4.398438 L 21.234375 2.445312 Z M 1.96875 6.648438 L 0.722656 5.824219 L 1.28125 4.988281 L 1.53125 5.152344 L 1.535156 5.15625 C 1.539062 5.160156 1.539062 5.160156 1.542969 5.160156 L 1.546875 5.164062 L 2.238281 5.621094 C 2.246094 5.628906 2.253906 5.632812 2.265625 5.636719 L 2.53125 5.8125 Z M 2.382812 5.097656 L 1.988281 4.835938 C 2.050781 4.5625 2.054688 4.125 1.875 3.425781 C 2.824219 1.871094 4.28125 0.933594 6.324219 0.570312 L 6.5625 1.011719 C 5.75 1.292969 5.039062 1.777344 4.453125 2.453125 L 4.316406 2.613281 L 4.816406 3.269531 L 3.832031 4.730469 C 3.285156 4.683594 2.796875 4.808594 2.382812 5.097656 Z M 14.28125 3.367188 C 14.441406 3.441406 14.539062 3.609375 14.503906 3.742188 C 14.5 3.753906 14.488281 3.773438 14.480469 3.796875 C 14.476562 3.800781 14.476562 3.804688 14.472656 3.808594 C 14.46875 3.8125 14.472656 3.808594 14.472656 3.808594 C 14.472656 3.8125 14.46875 3.816406 14.46875 3.816406 C 14.386719 4 14.195312 4.398438 13.96875 4.824219 C 13.90625 4.941406 13.839844 5.058594 13.773438 5.175781 C 13.652344 5.394531 13.515625 5.609375 13.371094 5.816406 C 13.222656 6.019531 13.125 6.121094 13.0625 6.171875 C 13.0625 6.117188 13.0625 6.0625 13.070312 6.007812 C 13.085938 5.863281 13.125 5.636719 13.226562 5.296875 C 13.257812 5.183594 13.300781 5.058594 13.347656 4.917969 C 13.5625 4.277344 13.832031 3.644531 13.910156 3.464844 C 13.917969 3.449219 13.925781 3.433594 13.933594 3.417969 L 13.933594 3.414062 C 14 3.328125 14.148438 3.304688 14.28125 3.367188 Z M 10.726562 2.285156 C 10.925781 2.292969 11.09375 2.429688 11.117188 2.597656 C 11.117188 2.617188 11.117188 2.640625 11.117188 2.664062 C 11.117188 2.902344 11.105469 3.738281 11.027344 4.542969 C 10.929688 5.609375 10.78125 5.972656 10.710938 6.09375 C 10.640625 5.976562 10.496094 5.617188 10.398438 4.585938 C 10.324219 3.808594 10.308594 3.003906 10.304688 2.695312 C 10.304688 2.648438 10.304688 2.613281 10.304688 2.597656 C 10.332031 2.417969 10.515625 2.28125 10.726562 2.285156 Z M 7.140625 3.371094 C 7.273438 3.308594 7.421875 3.328125 7.488281 3.417969 C 7.488281 3.421875 7.488281 3.421875 7.492188 3.425781 C 7.496094 3.4375 7.503906 3.453125 7.511719 3.46875 C 7.589844 3.648438 7.863281 4.28125 8.078125 4.921875 C 8.125 5.066406 8.167969 5.195312 8.199219 5.3125 C 8.300781 5.65625 8.339844 5.878906 8.355469 6.023438 C 8.359375 6.074219 8.359375 6.125 8.359375 6.175781 C 8.300781 6.125 8.203125 6.03125 8.066406 5.839844 C 7.914062 5.628906 7.773438 5.410156 7.648438 5.179688 C 7.585938 5.070312 7.523438 4.957031 7.464844 4.847656 C 7.230469 4.414062 7.039062 4.003906 6.953125 3.820312 L 6.949219 3.816406 C 6.949219 3.8125 6.945312 3.808594 6.945312 3.804688 L 6.917969 3.746094 C 6.882812 3.613281 6.984375 3.445312 7.140625 3.371094 Z M 4.523438 4.640625 L 5.015625 3.90625 L 5.785156 4.398438 C 5.574219 4.617188 5.375 4.851562 5.191406 5.097656 Z M 4.207031 13.304688 C 4 13.445312 3.753906 13.507812 3.550781 13.472656 C 3.496094 13.460938 3.445312 13.445312 3.398438 13.417969 C 3.355469 13.390625 3.316406 13.355469 3.285156 13.3125 L 3.054688 12.96875 C 3 12.878906 2.984375 12.769531 3.007812 12.667969 C 3.050781 12.464844 3.207031 12.265625 3.417969 12.128906 L 5.304688 10.933594 C 5.40625 11.042969 5.503906 11.183594 5.652344 11.414062 C 5.785156 11.625 5.941406 11.820312 6.121094 11.996094 Z M 17.980469 12.128906 C 18.195312 12.261719 18.347656 12.464844 18.390625 12.664062 C 18.402344 12.714844 18.40625 12.769531 18.398438 12.820312 C 18.390625 12.875 18.371094 12.925781 18.34375 12.96875 L 18.117188 13.3125 C 18.082031 13.355469 18.042969 13.390625 18 13.417969 C 17.953125 13.445312 17.902344 13.460938 17.847656 13.46875 C 17.644531 13.507812 17.398438 13.445312 17.191406 13.304688 L 15.28125 11.996094 C 15.460938 11.820312 15.617188 11.625 15.75 11.414062 C 15.894531 11.183594 15.996094 11.039062 16.09375 10.933594 Z M 17.800781 9.210938 C 17.800781 9.214844 17.796875 9.363281 17.320312 9.628906 C 16.964844 9.828125 16.707031 9.960938 16.5 10.066406 C 16.320312 10.15625 16.183594 10.230469 16.066406 10.300781 C 15.910156 10.394531 15.769531 10.515625 15.65625 10.65625 C 15.53125 10.808594 15.417969 10.96875 15.3125 11.136719 C 15.183594 11.34375 15.027344 11.535156 14.84375 11.699219 C 14.703125 11.820312 14.546875 11.925781 14.378906 12.007812 C 13.738281 12.335938 12.671875 12.550781 10.703125 12.550781 C 8.734375 12.550781 7.667969 12.335938 7.023438 12.007812 C 6.855469 11.925781 6.699219 11.820312 6.558594 11.699219 C 6.378906 11.535156 6.21875 11.34375 6.09375 11.136719 C 5.988281 10.96875 5.871094 10.808594 5.75 10.652344 C 5.632812 10.511719 5.496094 10.394531 5.339844 10.300781 C 5.222656 10.230469 5.085938 10.160156 4.90625 10.066406 C 4.699219 9.960938 4.441406 9.832031 4.085938 9.628906 C 3.601562 9.359375 3.605469 9.210938 3.605469 9.210938 C 3.613281 9.152344 3.75 9.058594 3.90625 8.996094 C 4.132812 9.164062 4.710938 9.5625 5.605469 9.964844 C 5.65625 9.988281 5.707031 10.007812 5.761719 10.03125 C 5.945312 10.109375 6.144531 10.191406 6.359375 10.265625 C 6.886719 10.457031 7.429688 10.613281 7.976562 10.726562 C 8.210938 10.777344 8.453125 10.820312 8.703125 10.859375 C 9.332031 10.953125 9.96875 11 10.605469 11 C 11.296875 11 11.984375 10.945312 12.664062 10.835938 C 12.914062 10.796875 13.15625 10.75 13.386719 10.703125 C 13.933594 10.582031 14.472656 10.429688 15.003906 10.242188 C 15.21875 10.164062 15.417969 10.085938 15.601562 10.007812 L 15.710938 9.964844 C 16.652344 9.566406 17.265625 9.164062 17.507812 9 C 17.660156 9.0625 17.792969 9.152344 17.800781 9.210938 Z M 17.175781 8.597656 C 16.933594 8.761719 16.347656 9.132812 15.484375 9.496094 C 15.351562 9.554688 15.210938 9.609375 15.0625 9.667969 C 14.871094 9.742188 14.660156 9.8125 14.4375 9.886719 C 13.898438 10.058594 13.34375 10.195312 12.785156 10.292969 C 12.542969 10.335938 12.289062 10.375 12.027344 10.402344 C 11.554688 10.457031 11.082031 10.484375 10.605469 10.484375 C 10.183594 10.484375 9.765625 10.460938 9.34375 10.417969 C 9.082031 10.390625 8.824219 10.355469 8.578125 10.316406 C 8.015625 10.222656 7.460938 10.085938 6.917969 9.914062 C 6.695312 9.839844 6.488281 9.765625 6.296875 9.695312 C 6.132812 9.628906 5.976562 9.566406 5.835938 9.503906 C 5.011719 9.136719 4.46875 8.765625 4.246094 8.605469 C 4.40625 7.609375 4.773438 6.660156 5.320312 5.8125 C 5.414062 5.667969 5.515625 5.527344 5.617188 5.390625 C 5.808594 5.140625 6.015625 4.90625 6.238281 4.683594 C 6.359375 4.5625 6.488281 4.445312 6.617188 4.332031 C 6.730469 4.570312 6.890625 4.886719 7.066406 5.210938 C 7.105469 5.28125 7.144531 5.347656 7.183594 5.417969 C 7.765625 6.4375 8.066406 6.644531 8.261719 6.714844 C 8.3125 6.730469 8.367188 6.742188 8.421875 6.742188 C 8.488281 6.742188 8.554688 6.726562 8.613281 6.695312 C 8.746094 6.628906 8.828125 6.519531 8.863281 6.347656 C 8.894531 6.191406 8.886719 5.984375 8.835938 5.71875 C 8.78125 5.445312 8.710938 5.171875 8.621094 4.90625 C 8.429688 4.316406 8.179688 3.707031 8.046875 3.402344 C 8.597656 3.140625 9.183594 2.964844 9.785156 2.871094 C 9.792969 3.296875 9.816406 4.078125 9.894531 4.808594 C 9.949219 5.304688 10.019531 5.695312 10.105469 5.980469 C 10.15625 6.144531 10.308594 6.652344 10.710938 6.652344 C 11.113281 6.652344 11.269531 6.132812 11.320312 5.960938 C 11.40625 5.671875 11.476562 5.269531 11.53125 4.765625 C 11.605469 4.046875 11.628906 3.273438 11.636719 2.871094 C 12.238281 2.964844 12.824219 3.140625 13.375 3.402344 C 13.242188 3.707031 12.992188 4.316406 12.800781 4.90625 C 12.714844 5.167969 12.644531 5.433594 12.585938 5.703125 C 12.558594 5.847656 12.542969 5.992188 12.539062 6.136719 C 12.539062 6.203125 12.546875 6.269531 12.558594 6.335938 C 12.589844 6.511719 12.675781 6.628906 12.808594 6.695312 C 12.867188 6.722656 12.933594 6.738281 13 6.738281 C 13.054688 6.738281 13.109375 6.730469 13.160156 6.710938 C 13.355469 6.644531 13.660156 6.433594 14.238281 5.417969 C 14.28125 5.339844 14.324219 5.265625 14.363281 5.191406 C 14.535156 4.875 14.691406 4.5625 14.804688 4.332031 C 14.933594 4.441406 15.058594 4.554688 15.175781 4.675781 C 15.398438 4.898438 15.605469 5.132812 15.796875 5.382812 C 15.902344 5.519531 16 5.660156 16.09375 5.804688 C 16.644531 6.652344 17.015625 7.601562 17.175781 8.597656 Z M 16.226562 5.085938 C 16.039062 4.84375 15.839844 4.609375 15.625 4.390625 L 16.386719 3.90625 L 16.878906 4.640625 Z M 20.367188 4.085938 L 19.054688 4.953125 L 17.507812 4.644531 L 16.632812 3.34375 L 16.945312 1.816406 L 18.257812 0.945312 L 19.515625 1.195312 L 17.511719 2.519531 L 18.613281 4.164062 L 20.617188 2.839844 Z M 20.367188 4.085938 "/>
</g>
<g clip-path="url(#clip2)" clip-rule="nonzero">
<path style=" stroke:none;fill-rule:nonzero;fill:rgb(100%,100%,100%);fill-opacity:1;" d="M 23.167969 1.253906 L 23.167969 2.609375 L 23.816406 2.609375 C 24.035156 2.609375 24.207031 2.546875 24.332031 2.425781 C 24.460938 2.300781 24.527344 2.136719 24.527344 1.9375 C 24.527344 1.734375 24.460938 1.574219 24.328125 1.449219 C 24.199219 1.320312 24.027344 1.253906 23.820312 1.253906 Z M 23.167969 3.644531 L 23.167969 5.433594 L 21.601562 5.433594 L 21.601562 0.0976562 L 23.972656 0.0976562 C 24.675781 0.0976562 25.210938 0.253906 25.574219 0.570312 C 25.941406 0.886719 26.125 1.332031 26.125 1.910156 C 26.125 2.234375 26.050781 2.53125 25.898438 2.804688 C 25.746094 3.078125 25.535156 3.28125 25.265625 3.410156 L 26.277344 5.433594 L 24.527344 5.433594 L 23.683594 3.644531 Z M 28.644531 5.539062 C 27.972656 5.539062 27.449219 5.351562 27.070312 4.980469 C 26.691406 4.605469 26.5 4.074219 26.5 3.390625 C 26.5 2.722656 26.691406 2.195312 27.078125 1.816406 C 27.464844 1.4375 27.984375 1.246094 28.644531 1.246094 C 29.308594 1.246094 29.832031 1.4375 30.214844 1.816406 C 30.601562 2.195312 30.792969 2.71875 30.792969 3.390625 C 30.792969 4.074219 30.601562 4.605469 30.222656 4.980469 C 29.84375 5.351562 29.316406 5.539062 28.644531 5.539062 Z M 28.644531 4.453125 C 28.832031 4.453125 28.984375 4.363281 29.089844 4.175781 C 29.199219 3.992188 29.253906 3.730469 29.253906 3.394531 C 29.253906 3.0625 29.199219 2.804688 29.085938 2.617188 C 28.980469 2.425781 28.832031 2.332031 28.644531 2.332031 C 28.457031 2.332031 28.308594 2.425781 28.199219 2.617188 C 28.09375 2.804688 28.039062 3.0625 28.039062 3.394531 C 28.039062 3.734375 28.089844 3.996094 28.195312 4.179688 C 28.300781 4.363281 28.453125 4.453125 28.644531 4.453125 Z M 35.425781 1.351562 L 35.425781 5.433594 L 33.945312 5.433594 L 33.945312 4.632812 L 33.914062 4.632812 C 33.832031 4.917969 33.691406 5.132812 33.496094 5.289062 C 33.304688 5.441406 33.058594 5.515625 32.761719 5.515625 C 32.3125 5.515625 31.949219 5.378906 31.664062 5.101562 C 31.382812 4.824219 31.242188 4.445312 31.242188 3.96875 L 31.242188 1.351562 L 32.757812 1.351562 L 32.757812 3.628906 C 32.757812 3.84375 32.8125 4.007812 32.917969 4.121094 C 33.023438 4.234375 33.167969 4.292969 33.347656 4.292969 C 33.515625 4.292969 33.652344 4.230469 33.753906 4.109375 C 33.855469 3.988281 33.910156 3.832031 33.910156 3.632812 L 33.910156 1.351562 Z M 35.992188 5.433594 L 35.992188 1.351562 L 37.472656 1.351562 L 37.472656 2.152344 L 37.5 2.152344 C 37.605469 1.867188 37.761719 1.644531 37.976562 1.496094 C 38.1875 1.34375 38.445312 1.269531 38.753906 1.269531 C 39.210938 1.269531 39.5625 1.40625 39.804688 1.675781 C 40.050781 1.945312 40.175781 2.328125 40.175781 2.820312 L 40.175781 5.433594 L 38.660156 5.433594 L 38.660156 3.15625 C 38.660156 2.945312 38.609375 2.785156 38.511719 2.667969 C 38.414062 2.550781 38.273438 2.496094 38.085938 2.496094 C 37.90625 2.496094 37.769531 2.554688 37.664062 2.679688 C 37.5625 2.800781 37.507812 2.957031 37.507812 3.152344 L 37.507812 5.433594 Z M 42.210938 5.496094 C 41.707031 5.496094 41.316406 5.308594 41.039062 4.941406 C 40.761719 4.566406 40.621094 4.046875 40.621094 3.382812 C 40.621094 2.726562 40.761719 2.214844 41.046875 1.847656 C 41.332031 1.476562 41.730469 1.292969 42.238281 1.292969 C 42.527344 1.292969 42.78125 1.367188 42.992188 1.515625 C 43.207031 1.660156 43.355469 1.851562 43.433594 2.085938 L 43.464844 2.085938 L 43.464844 0.0976562 L 44.980469 0.0976562 L 44.980469 5.433594 L 43.464844 5.433594 L 43.464844 4.730469 L 43.433594 4.730469 C 43.363281 4.949219 43.214844 5.128906 42.992188 5.277344 C 42.769531 5.421875 42.507812 5.496094 42.210938 5.496094 Z M 43.296875 2.707031 C 43.183594 2.542969 43.023438 2.460938 42.820312 2.460938 C 42.621094 2.460938 42.460938 2.542969 42.34375 2.710938 C 42.230469 2.878906 42.175781 3.105469 42.175781 3.394531 C 42.175781 3.6875 42.230469 3.917969 42.34375 4.082031 C 42.457031 4.242188 42.617188 4.324219 42.820312 4.324219 C 43.027344 4.324219 43.183594 4.242188 43.296875 4.082031 C 43.414062 3.917969 43.472656 3.691406 43.472656 3.398438 C 43.472656 3.101562 43.414062 2.875 43.296875 2.707031 Z M 48.648438 1.253906 L 48.648438 2.609375 L 49.292969 2.609375 C 49.515625 2.609375 49.6875 2.546875 49.8125 2.425781 C 49.941406 2.300781 50.003906 2.136719 50.003906 1.9375 C 50.003906 1.734375 49.9375 1.574219 49.808594 1.449219 C 49.675781 1.320312 49.507812 1.253906 49.296875 1.253906 Z M 48.648438 3.644531 L 48.648438 5.433594 L 47.078125 5.433594 L 47.078125 0.0976562 L 49.449219 0.0976562 C 50.15625 0.0976562 50.6875 0.253906 51.054688 0.570312 C 51.421875 0.886719 51.605469 1.332031 51.605469 1.910156 C 51.605469 2.234375 51.527344 2.53125 51.375 2.804688 C 51.226562 3.078125 51.015625 3.28125 50.742188 3.410156 L 51.757812 5.433594 L 50.003906 5.433594 L 49.160156 3.644531 Z M 54.121094 5.539062 C 53.453125 5.539062 52.925781 5.351562 52.546875 4.980469 C 52.167969 4.605469 51.976562 4.074219 51.976562 3.390625 C 51.976562 2.722656 52.171875 2.195312 52.554688 1.816406 C 52.941406 1.4375 53.464844 1.246094 54.121094 1.246094 C 54.785156 1.246094 55.308594 1.4375 55.695312 1.816406 C 56.078125 2.195312 56.269531 2.71875 56.269531 3.390625 C 56.269531 4.074219 56.082031 4.605469 55.699219 4.980469 C 55.320312 5.351562 54.796875 5.539062 54.121094 5.539062 Z M 54.121094 4.453125 C 54.3125 4.453125 54.460938 4.363281 54.570312 4.175781 C 54.679688 3.992188 54.734375 3.730469 54.734375 3.394531 C 54.734375 3.0625 54.675781 2.804688 54.566406 2.617188 C 54.457031 2.425781 54.308594 2.332031 54.121094 2.332031 C 53.933594 2.332031 53.789062 2.425781 53.679688 2.617188 C 53.570312 2.804688 53.515625 3.0625 53.515625 3.394531 C 53.515625 3.734375 53.570312 3.996094 53.675781 4.179688 C 53.78125 4.363281 53.929688 4.453125 54.121094 4.453125 Z M 60.746094 3.042969 L 59.367188 3.042969 C 59.351562 2.835938 59.292969 2.675781 59.1875 2.558594 C 59.082031 2.4375 58.945312 2.375 58.785156 2.375 C 58.585938 2.375 58.433594 2.460938 58.324219 2.636719 C 58.222656 2.808594 58.171875 3.058594 58.171875 3.390625 C 58.171875 3.722656 58.222656 3.976562 58.324219 4.152344 C 58.429688 4.324219 58.582031 4.410156 58.785156 4.410156 C 58.953125 4.410156 59.089844 4.355469 59.195312 4.242188 C 59.296875 4.128906 59.355469 3.972656 59.367188 3.769531 L 60.746094 3.769531 C 60.738281 4.324219 60.558594 4.753906 60.207031 5.070312 C 59.855469 5.382812 59.375 5.539062 58.765625 5.539062 C 58.101562 5.539062 57.582031 5.347656 57.203125 4.96875 C 56.824219 4.585938 56.636719 4.058594 56.636719 3.390625 C 56.636719 2.722656 56.824219 2.199219 57.203125 1.820312 C 57.582031 1.4375 58.101562 1.246094 58.757812 1.246094 C 59.355469 1.246094 59.832031 1.410156 60.191406 1.730469 C 60.550781 2.054688 60.738281 2.492188 60.746094 3.042969 Z M 62.761719 2.828125 L 63.753906 1.351562 L 65.421875 1.351562 L 64.0625 3.09375 L 65.515625 5.433594 L 63.773438 5.433594 L 62.933594 4 L 62.730469 4.265625 L 62.730469 5.433594 L 61.214844 5.433594 L 61.214844 0.0976562 L 62.730469 0.0976562 L 62.730469 2.828125 Z M 23.339844 8.894531 L 22.726562 8.894531 L 22.726562 8.085938 L 21.988281 8.085938 L 21.988281 8.894531 L 21.375 8.894531 L 21.375 6.804688 L 21.988281 6.804688 L 21.988281 7.597656 L 22.726562 7.597656 L 22.726562 6.804688 L 23.339844 6.804688 Z M 25.261719 8.519531 C 25.332031 8.519531 25.390625 8.503906 25.441406 8.46875 C 25.492188 8.433594 25.515625 8.386719 25.515625 8.328125 L 25.515625 8.226562 L 25.265625 8.242188 C 25.210938 8.246094 25.164062 8.261719 25.136719 8.285156 C 25.105469 8.3125 25.089844 8.34375 25.089844 8.382812 C 25.089844 8.425781 25.105469 8.460938 25.136719 8.484375 C 25.167969 8.507812 25.210938 8.519531 25.261719 8.519531 Z M 25.042969 8.917969 C 24.894531 8.917969 24.765625 8.871094 24.660156 8.78125 C 24.558594 8.6875 24.503906 8.570312 24.503906 8.429688 C 24.503906 8.277344 24.5625 8.160156 24.671875 8.078125 C 24.789062 7.992188 24.953125 7.945312 25.167969 7.929688 L 25.515625 7.910156 L 25.515625 7.832031 C 25.515625 7.777344 25.5 7.738281 25.464844 7.707031 C 25.425781 7.679688 25.382812 7.664062 25.324219 7.664062 C 25.265625 7.664062 25.21875 7.679688 25.179688 7.707031 C 25.140625 7.734375 25.121094 7.769531 25.117188 7.8125 L 24.585938 7.8125 C 24.59375 7.640625 24.667969 7.503906 24.804688 7.40625 C 24.941406 7.304688 25.125 7.253906 25.355469 7.253906 C 25.578125 7.253906 25.753906 7.304688 25.890625 7.40625 C 26.027344 7.507812 26.09375 7.640625 26.09375 7.800781 L 26.09375 8.894531 L 25.515625 8.894531 L 25.515625 8.679688 L 25.503906 8.679688 C 25.464844 8.753906 25.402344 8.8125 25.316406 8.855469 C 25.230469 8.898438 25.140625 8.917969 25.042969 8.917969 Z M 27.3125 8.894531 L 27.3125 7.296875 L 27.890625 7.296875 L 27.890625 7.609375 L 27.902344 7.609375 C 27.941406 7.496094 28.003906 7.410156 28.085938 7.351562 C 28.171875 7.292969 28.273438 7.265625 28.394531 7.265625 C 28.570312 7.265625 28.707031 7.316406 28.804688 7.421875 C 28.898438 7.527344 28.949219 7.675781 28.949219 7.871094 L 28.949219 8.894531 L 28.355469 8.894531 L 28.355469 8.003906 C 28.355469 7.921875 28.335938 7.855469 28.296875 7.8125 C 28.257812 7.765625 28.203125 7.742188 28.132812 7.742188 C 28.0625 7.742188 28.007812 7.765625 27.964844 7.816406 C 27.925781 7.863281 27.90625 7.925781 27.90625 8 L 27.90625 8.894531 Z M 30.738281 8.917969 C 30.539062 8.917969 30.386719 8.84375 30.277344 8.699219 C 30.171875 8.554688 30.117188 8.351562 30.117188 8.089844 C 30.117188 7.835938 30.171875 7.632812 30.28125 7.488281 C 30.394531 7.34375 30.550781 7.273438 30.746094 7.273438 C 30.863281 7.273438 30.960938 7.300781 31.042969 7.359375 C 31.125 7.417969 31.183594 7.492188 31.214844 7.585938 L 31.226562 7.585938 L 31.226562 6.804688 L 31.820312 6.804688 L 31.820312 8.894531 L 31.226562 8.894531 L 31.226562 8.617188 L 31.214844 8.617188 C 31.1875 8.703125 31.128906 8.773438 31.042969 8.832031 C 30.957031 8.890625 30.855469 8.917969 30.738281 8.917969 Z M 31.164062 7.828125 C 31.117188 7.761719 31.054688 7.730469 30.976562 7.730469 C 30.898438 7.730469 30.835938 7.761719 30.789062 7.828125 C 30.746094 7.894531 30.722656 7.980469 30.722656 8.09375 C 30.722656 8.210938 30.746094 8.300781 30.789062 8.363281 C 30.835938 8.429688 30.894531 8.460938 30.976562 8.460938 C 31.054688 8.460938 31.117188 8.429688 31.164062 8.363281 C 31.207031 8.300781 31.230469 8.210938 31.230469 8.097656 C 31.230469 7.980469 31.207031 7.890625 31.164062 7.828125 Z M 33.308594 9.480469 L 33.097656 9.480469 L 33.097656 9.039062 L 33.214844 9.039062 C 33.296875 9.039062 33.359375 9.03125 33.398438 9.015625 C 33.4375 9 33.457031 8.972656 33.457031 8.9375 C 33.457031 8.921875 33.453125 8.910156 33.449219 8.894531 L 32.925781 7.296875 L 33.582031 7.296875 L 33.828125 8.46875 L 33.835938 8.46875 L 34.078125 7.296875 L 34.707031 7.296875 L 34.230469 8.855469 C 34.164062 9.078125 34.058594 9.238281 33.914062 9.335938 C 33.769531 9.433594 33.570312 9.480469 33.308594 9.480469 Z M 35.808594 8.894531 L 35.808594 7.296875 L 36.386719 7.296875 L 36.386719 7.617188 L 36.398438 7.617188 C 36.429688 7.511719 36.484375 7.425781 36.570312 7.359375 C 36.652344 7.296875 36.746094 7.265625 36.855469 7.265625 C 36.980469 7.265625 37.078125 7.296875 37.15625 7.355469 C 37.234375 7.417969 37.28125 7.503906 37.300781 7.617188 L 37.3125 7.617188 C 37.339844 7.507812 37.398438 7.425781 37.484375 7.359375 C 37.574219 7.296875 37.679688 7.265625 37.804688 7.265625 C 37.957031 7.265625 38.085938 7.316406 38.183594 7.417969 C 38.28125 7.519531 38.328125 7.652344 38.328125 7.8125 L 38.328125 8.894531 L 37.734375 8.894531 L 37.734375 7.96875 C 37.734375 7.816406 37.671875 7.742188 37.542969 7.742188 C 37.480469 7.742188 37.433594 7.761719 37.402344 7.800781 C 37.367188 7.839844 37.351562 7.894531 37.351562 7.964844 L 37.351562 8.894531 L 36.789062 8.894531 L 36.789062 7.96875 C 36.789062 7.816406 36.722656 7.742188 36.59375 7.742188 C 36.535156 7.742188 36.488281 7.761719 36.453125 7.800781 C 36.417969 7.839844 36.402344 7.898438 36.402344 7.964844 L 36.402344 8.894531 Z M 40.238281 8.519531 C 40.308594 8.519531 40.367188 8.503906 40.417969 8.46875 C 40.46875 8.433594 40.492188 8.386719 40.492188 8.328125 L 40.492188 8.226562 L 40.242188 8.242188 C 40.183594 8.246094 40.140625 8.261719 40.109375 8.285156 C 40.078125 8.3125 40.0625 8.34375 40.0625 8.382812 C 40.0625 8.425781 40.082031 8.460938 40.113281 8.484375 C 40.144531 8.507812 40.1875 8.519531 40.238281 8.519531 Z M 40.019531 8.917969 C 39.871094 8.917969 39.742188 8.871094 39.636719 8.78125 C 39.53125 8.6875 39.480469 8.570312 39.480469 8.429688 C 39.480469 8.277344 39.535156 8.160156 39.648438 8.078125 C 39.761719 7.992188 39.925781 7.945312 40.140625 7.929688 L 40.492188 7.910156 L 40.492188 7.832031 C 40.492188 7.777344 40.472656 7.738281 40.4375 7.707031 C 40.402344 7.679688 40.355469 7.664062 40.300781 7.664062 C 40.242188 7.664062 40.191406 7.679688 40.15625 7.707031 C 40.117188 7.734375 40.097656 7.769531 40.089844 7.8125 L 39.5625 7.8125 C 39.570312 7.640625 39.640625 7.503906 39.777344 7.40625 C 39.917969 7.304688 40.101562 7.253906 40.332031 7.253906 C 40.550781 7.253906 40.730469 7.304688 40.867188 7.40625 C 41.003906 7.507812 41.070312 7.640625 41.070312 7.800781 L 41.070312 8.894531 L 40.492188 8.894531 L 40.492188 8.679688 L 40.480469 8.679688 C 40.441406 8.753906 40.378906 8.8125 40.292969 8.855469 C 40.207031 8.898438 40.117188 8.917969 40.019531 8.917969 Z M 42.289062 8.894531 L 42.289062 7.296875 L 42.867188 7.296875 L 42.867188 7.609375 L 42.878906 7.609375 C 42.917969 7.496094 42.980469 7.410156 43.0625 7.351562 C 43.144531 7.292969 43.246094 7.265625 43.367188 7.265625 C 43.546875 7.265625 43.683594 7.316406 43.777344 7.421875 C 43.875 7.527344 43.921875 7.675781 43.921875 7.871094 L 43.921875 8.894531 L 43.332031 8.894531 L 43.332031 8.003906 C 43.332031 7.921875 43.3125 7.855469 43.273438 7.8125 C 43.234375 7.765625 43.179688 7.742188 43.105469 7.742188 C 43.035156 7.742188 42.980469 7.765625 42.941406 7.816406 C 42.902344 7.863281 42.878906 7.925781 42.878906 8 L 42.878906 8.894531 Z M 46.660156 7.792969 C 46.660156 7.625 46.726562 7.496094 46.859375 7.398438 C 46.992188 7.304688 47.175781 7.253906 47.410156 7.253906 C 47.640625 7.253906 47.824219 7.304688 47.957031 7.402344 C 48.085938 7.5 48.152344 7.636719 48.152344 7.8125 L 47.617188 7.8125 C 47.617188 7.761719 47.597656 7.71875 47.558594 7.691406 C 47.519531 7.660156 47.46875 7.644531 47.40625 7.644531 C 47.351562 7.644531 47.308594 7.652344 47.277344 7.671875 C 47.242188 7.691406 47.226562 7.71875 47.226562 7.753906 C 47.226562 7.804688 47.28125 7.839844 47.382812 7.859375 L 47.742188 7.929688 C 47.902344 7.960938 48.015625 8.011719 48.089844 8.082031 C 48.164062 8.152344 48.203125 8.25 48.203125 8.371094 C 48.203125 8.542969 48.128906 8.679688 47.988281 8.78125 C 47.847656 8.882812 47.65625 8.933594 47.421875 8.933594 C 47.175781 8.933594 46.984375 8.886719 46.847656 8.785156 C 46.710938 8.683594 46.636719 8.546875 46.625 8.375 L 47.199219 8.375 C 47.203125 8.429688 47.226562 8.472656 47.265625 8.5 C 47.308594 8.53125 47.363281 8.546875 47.429688 8.546875 C 47.488281 8.546875 47.53125 8.539062 47.566406 8.519531 C 47.597656 8.5 47.613281 8.472656 47.613281 8.441406 C 47.613281 8.414062 47.601562 8.394531 47.578125 8.378906 C 47.554688 8.363281 47.519531 8.351562 47.464844 8.339844 L 47.15625 8.28125 C 46.996094 8.25 46.871094 8.191406 46.785156 8.109375 C 46.703125 8.023438 46.660156 7.917969 46.660156 7.792969 Z M 50.140625 7.664062 C 50.074219 7.664062 50.015625 7.6875 49.972656 7.730469 C 49.925781 7.773438 49.898438 7.832031 49.894531 7.898438 L 50.390625 7.898438 C 50.386719 7.828125 50.359375 7.769531 50.3125 7.730469 C 50.269531 7.683594 50.210938 7.664062 50.140625 7.664062 Z M 50.40625 8.375 L 50.9375 8.375 C 50.910156 8.546875 50.828125 8.683594 50.6875 8.785156 C 50.546875 8.886719 50.367188 8.933594 50.148438 8.933594 C 49.886719 8.933594 49.679688 8.859375 49.535156 8.714844 C 49.386719 8.566406 49.3125 8.363281 49.3125 8.105469 C 49.3125 7.84375 49.386719 7.636719 49.53125 7.484375 C 49.679688 7.332031 49.878906 7.253906 50.128906 7.253906 C 50.375 7.253906 50.574219 7.328125 50.722656 7.476562 C 50.871094 7.621094 50.941406 7.816406 50.941406 8.058594 L 50.941406 8.222656 L 49.882812 8.222656 L 49.882812 8.257812 C 49.882812 8.335938 49.910156 8.402344 49.960938 8.453125 C 50.011719 8.503906 50.078125 8.527344 50.15625 8.527344 C 50.214844 8.527344 50.269531 8.515625 50.3125 8.488281 C 50.359375 8.460938 50.390625 8.421875 50.40625 8.375 Z M 52.117188 8.894531 L 52.117188 7.296875 L 52.695312 7.296875 L 52.695312 7.609375 L 52.707031 7.609375 C 52.765625 7.386719 52.890625 7.273438 53.078125 7.273438 C 53.128906 7.273438 53.175781 7.28125 53.21875 7.296875 L 53.21875 7.792969 C 53.167969 7.773438 53.109375 7.761719 53.046875 7.761719 C 52.820312 7.761719 52.710938 7.875 52.710938 8.097656 L 52.710938 8.894531 Z M 55.953125 7.296875 L 55.441406 8.894531 L 54.746094 8.894531 L 54.226562 7.296875 L 54.863281 7.296875 L 55.097656 8.414062 L 55.109375 8.414062 L 55.332031 7.296875 Z M 57.039062 8.894531 L 57.039062 7.296875 L 57.632812 7.296875 L 57.632812 8.894531 Z M 57.546875 7.128906 C 57.492188 7.179688 57.421875 7.207031 57.335938 7.207031 C 57.253906 7.207031 57.183594 7.179688 57.125 7.128906 C 57.070312 7.074219 57.042969 7.007812 57.042969 6.925781 C 57.042969 6.847656 57.070312 6.78125 57.125 6.726562 C 57.183594 6.671875 57.253906 6.644531 57.335938 6.644531 C 57.421875 6.644531 57.492188 6.671875 57.546875 6.726562 C 57.605469 6.78125 57.632812 6.847656 57.632812 6.925781 C 57.632812 7.007812 57.605469 7.074219 57.546875 7.128906 Z M 60.417969 7.957031 L 59.878906 7.957031 C 59.871094 7.878906 59.847656 7.8125 59.804688 7.769531 C 59.765625 7.71875 59.710938 7.695312 59.648438 7.695312 C 59.570312 7.695312 59.511719 7.730469 59.46875 7.796875 C 59.429688 7.867188 59.410156 7.964844 59.410156 8.09375 C 59.410156 8.222656 59.429688 8.324219 59.46875 8.390625 C 59.511719 8.460938 59.570312 8.492188 59.648438 8.492188 C 59.714844 8.492188 59.769531 8.472656 59.808594 8.429688 C 59.851562 8.382812 59.871094 8.320312 59.878906 8.242188 L 60.417969 8.242188 C 60.414062 8.457031 60.34375 8.628906 60.207031 8.75 C 60.066406 8.875 59.878906 8.933594 59.640625 8.933594 C 59.382812 8.933594 59.179688 8.859375 59.03125 8.710938 C 58.882812 8.5625 58.808594 8.355469 58.808594 8.09375 C 58.808594 7.832031 58.882812 7.628906 59.03125 7.480469 C 59.179688 7.332031 59.382812 7.253906 59.640625 7.253906 C 59.871094 7.253906 60.058594 7.320312 60.199219 7.445312 C 60.339844 7.570312 60.414062 7.742188 60.417969 7.957031 Z M 62.375 7.664062 C 62.308594 7.664062 62.25 7.6875 62.203125 7.730469 C 62.15625 7.773438 62.132812 7.832031 62.125 7.898438 L 62.625 7.898438 C 62.617188 7.828125 62.59375 7.769531 62.546875 7.730469 C 62.5 7.683594 62.445312 7.664062 62.375 7.664062 Z M 62.640625 8.375 L 63.167969 8.375 C 63.144531 8.546875 63.058594 8.683594 62.917969 8.785156 C 62.777344 8.886719 62.597656 8.933594 62.378906 8.933594 C 62.117188 8.933594 61.914062 8.859375 61.765625 8.714844 C 61.621094 8.566406 61.546875 8.363281 61.546875 8.105469 C 61.546875 7.84375 61.617188 7.636719 61.765625 7.484375 C 61.910156 7.332031 62.109375 7.253906 62.359375 7.253906 C 62.609375 7.253906 62.808594 7.328125 62.953125 7.476562 C 63.101562 7.621094 63.175781 7.816406 63.175781 8.058594 L 63.175781 8.222656 L 62.117188 8.222656 L 62.117188 8.257812 C 62.117188 8.335938 62.140625 8.402344 62.195312 8.453125 C 62.246094 8.503906 62.308594 8.527344 62.390625 8.527344 C 62.449219 8.527344 62.503906 8.515625 62.546875 8.488281 C 62.59375 8.460938 62.625 8.421875 62.640625 8.375 Z M 64.320312 7.792969 C 64.320312 7.625 64.386719 7.496094 64.519531 7.398438 C 64.65625 7.304688 64.835938 7.253906 65.070312 7.253906 C 65.304688 7.253906 65.484375 7.304688 65.617188 7.402344 C 65.75 7.5 65.816406 7.636719 65.816406 7.8125 L 65.277344 7.8125 C 65.277344 7.761719 65.257812 7.71875 65.21875 7.691406 C 65.179688 7.660156 65.128906 7.644531 65.066406 7.644531 C 65.011719 7.644531 64.96875 7.652344 64.9375 7.671875 C 64.90625 7.691406 64.890625 7.71875 64.890625 7.753906 C 64.890625 7.804688 64.941406 7.839844 65.042969 7.859375 L 65.402344 7.929688 C 65.5625 7.960938 65.675781 8.011719 65.75 8.082031 C 65.824219 8.152344 65.863281 8.25 65.863281 8.371094 C 65.863281 8.542969 65.789062 8.679688 65.648438 8.78125 C 65.507812 8.882812 65.316406 8.933594 65.082031 8.933594 C 64.835938 8.933594 64.644531 8.886719 64.507812 8.785156 C 64.371094 8.683594 64.296875 8.546875 64.285156 8.375 L 64.859375 8.375 C 64.863281 8.429688 64.886719 8.472656 64.925781 8.5 C 64.96875 8.53125 65.023438 8.546875 65.089844 8.546875 C 65.148438 8.546875 65.191406 8.539062 65.226562 8.519531 C 65.257812 8.5 65.273438 8.472656 65.273438 8.441406 C 65.273438 8.414062 65.261719 8.394531 65.238281 8.378906 C 65.21875 8.363281 65.179688 8.351562 65.125 8.339844 L 64.816406 8.28125 C 64.65625 8.25 64.53125 8.191406 64.449219 8.109375 C 64.363281 8.023438 64.320312 7.917969 64.320312 7.792969 Z M 64.320312 7.792969 "/>
</g>
</g>
</svg>
