<svg width="180" height="106" viewBox="0 0 180 106" fill="none" xmlns="http://www.w3.org/2000/svg">
<g clip-path="url(#clip0_0_7928)">
<path fill-rule="evenodd" clip-rule="evenodd" d="M106.523 90.5263C105.215 90.166 99.9961 90.166 99.9961 90.166C99.9961 90.166 94.7871 90.166 93.4797 90.5057C92.7797 90.7013 92.2033 91.2778 92.0077 91.9881C91.668 93.2955 91.668 96.003 91.668 96.003C91.668 96.003 91.668 98.7207 92.0077 100.008C92.2033 100.718 92.7694 101.284 93.4797 101.48C94.7974 101.83 99.9961 101.83 99.9961 101.83C99.9961 101.83 105.215 101.83 106.523 101.49C107.233 101.294 107.799 100.738 107.985 100.018C108.335 98.7207 108.335 96.0133 108.335 96.0133C108.335 96.0133 108.345 93.2955 107.985 91.9881C107.799 91.2778 107.233 90.7116 106.523 90.5263ZM98.3387 98.4942V93.5015L102.673 96.003L98.3387 98.4942Z" fill="#6E38F7"/>
<path d="M62.3717 90.9052C62.3967 90.6593 62.3025 90.4168 62.1192 90.2518L60.2525 88.0018V87.666H66.0508L70.5325 97.4952L74.4725 87.666H80V88.0018L78.4033 89.5327C78.2658 89.6377 78.1975 89.8102 78.2258 89.981V101.229C78.1975 101.399 78.2658 101.572 78.4033 101.677L79.9625 103.208V103.544H72.1192V103.208L73.735 101.639C73.8933 101.481 73.8933 101.434 73.8933 101.192V92.1002L69.4025 103.507H68.7958L63.5667 92.1002V99.7452C63.5233 100.066 63.63 100.39 63.8558 100.622L65.9567 103.17V103.507H60V103.17L62.1008 100.622C62.3258 100.389 62.4258 100.064 62.3717 99.7452V90.9052Z" fill="#6E38F7"/>
<path d="M42.7467 104.333V98.3116H44.9907L45.3267 95.7061H42.7467V94.0426C42.7467 93.2883 42.9561 92.7742 44.0379 92.7742L45.4176 92.7736V90.4432C45.179 90.4114 44.36 90.3405 43.4071 90.3405C41.4179 90.3405 40.056 91.5547 40.056 93.7846V95.7061H37.8062V98.3116H40.056V104.333H33.668C32.5634 104.333 31.668 103.437 31.668 102.333L31.668 89.666C31.668 88.5614 32.5634 87.666 33.668 87.666H46.3346C47.4392 87.666 48.3346 88.5614 48.3346 89.666V102.333C48.3346 103.437 47.4392 104.333 46.3346 104.333H42.7467Z" fill="#6E38F7"/>
<path d="M18.3346 90.9375C17.7214 91.2097 17.0624 91.393 16.3707 91.4757C17.077 91.0527 17.6194 90.3826 17.8742 89.584C17.2138 89.9757 16.4819 90.2604 15.7027 90.4138C15.0798 89.7493 14.1902 89.334 13.2069 89.334C10.9992 89.334 9.377 91.3937 9.87561 93.5319C7.03464 93.3895 4.51519 92.0284 2.82839 89.9597C1.93255 91.4965 2.3638 93.5069 3.88602 94.525C3.3263 94.5069 2.79852 94.3534 2.33811 94.0972C2.30061 95.6812 3.43602 97.1632 5.08047 97.493C4.59922 97.6236 4.07214 97.6541 3.53602 97.5513C3.97075 98.9097 5.23325 99.8979 6.73047 99.9257C5.29297 101.053 3.48186 101.556 1.66797 101.342C3.18116 102.312 4.97908 102.878 6.90964 102.878C13.2582 102.878 16.8451 97.5166 16.6284 92.7076C17.2964 92.225 17.8763 91.6229 18.3346 90.9375Z" fill="#6E38F7"/>
<path d="M1.54 16C1.44667 16 1.372 15.972 1.316 15.916C1.26 15.8507 1.232 15.7713 1.232 15.678V6.522C1.232 6.42867 1.26 6.354 1.316 6.298C1.372 6.23267 1.44667 6.2 1.54 6.2H2.24C2.33333 6.2 2.408 6.23267 2.464 6.298C2.52 6.354 2.548 6.42867 2.548 6.522V14.824H7.224C7.32667 14.824 7.406 14.8567 7.462 14.922C7.52733 14.978 7.56 15.0527 7.56 15.146V15.678C7.56 15.7713 7.52733 15.8507 7.462 15.916C7.39667 15.972 7.31733 16 7.224 16H1.54ZM11.6313 16.14C10.6793 16.14 9.9186 15.846 9.34927 15.258C8.77993 14.6607 8.46727 13.8487 8.41127 12.822L8.39727 12.346L8.41127 11.884C8.46727 10.876 8.77993 10.0733 9.34927 9.476C9.9186 8.87867 10.6793 8.58 11.6313 8.58C12.6579 8.58 13.4513 8.90667 14.0113 9.56C14.5806 10.2133 14.8653 11.1 14.8653 12.22V12.472C14.8653 12.5653 14.8326 12.6447 14.7673 12.71C14.7113 12.766 14.6366 12.794 14.5433 12.794H9.68527V12.92C9.71327 13.5267 9.89993 14.0447 10.2453 14.474C10.5906 14.9033 11.0479 15.118 11.6173 15.118C12.0559 15.118 12.4106 15.034 12.6813 14.866C12.9613 14.6887 13.1713 14.5067 13.3113 14.32C13.3953 14.208 13.4606 14.1427 13.5073 14.124C13.5539 14.096 13.6333 14.082 13.7453 14.082H14.3613C14.4453 14.082 14.5153 14.1053 14.5713 14.152C14.6366 14.1987 14.6693 14.2593 14.6693 14.334C14.6693 14.5393 14.5433 14.7867 14.2913 15.076C14.0393 15.3653 13.6799 15.6173 13.2133 15.832C12.7559 16.0373 12.2286 16.14 11.6313 16.14ZM13.5913 11.842V11.8C13.5913 11.1467 13.4139 10.6147 13.0593 10.204C12.7046 9.79333 12.2286 9.588 11.6313 9.588C11.0246 9.588 10.5486 9.79333 10.2033 10.204C9.85793 10.6147 9.68527 11.1467 9.68527 11.8V11.842H13.5913ZM18.5836 16.14C18.1262 16.14 17.7016 16.0467 17.3096 15.86C16.9269 15.6733 16.6189 15.4213 16.3856 15.104C16.1616 14.7773 16.0496 14.418 16.0496 14.026C16.0496 13.41 16.3016 12.906 16.8056 12.514C17.3096 12.122 17.9956 11.8607 18.8636 11.73L20.9636 11.436V11.03C20.9636 10.0687 20.4082 9.588 19.2976 9.588C18.8682 9.588 18.5229 9.67667 18.2616 9.854C18.0002 10.022 17.8089 10.2227 17.6876 10.456C17.6502 10.5493 17.6082 10.6147 17.5616 10.652C17.5242 10.68 17.4682 10.694 17.3936 10.694H16.8476C16.7636 10.694 16.6889 10.666 16.6236 10.61C16.5676 10.5447 16.5396 10.47 16.5396 10.386C16.5396 10.1713 16.6376 9.924 16.8336 9.644C17.0389 9.35467 17.3516 9.10733 17.7716 8.902C18.1916 8.68733 18.7049 8.58 19.3116 8.58C20.3569 8.58 21.1036 8.82267 21.5516 9.308C22.0089 9.79333 22.2376 10.4 22.2376 11.128V15.678C22.2376 15.7713 22.2049 15.8507 22.1396 15.916C22.0836 15.972 22.0089 16 21.9156 16H21.2996C21.2062 16 21.1316 15.972 21.0756 15.916C21.0196 15.8507 20.9916 15.7713 20.9916 15.678V15.062C20.7862 15.37 20.4876 15.6267 20.0956 15.832C19.7036 16.0373 19.1996 16.14 18.5836 16.14ZM18.8636 15.118C19.4796 15.118 19.9836 14.9173 20.3756 14.516C20.7676 14.1147 20.9636 13.5313 20.9636 12.766V12.374L19.3256 12.612C18.6536 12.7053 18.1449 12.864 17.7996 13.088C17.4542 13.312 17.2816 13.592 17.2816 13.928C17.2816 14.3107 17.4356 14.6047 17.7436 14.81C18.0609 15.0153 18.4342 15.118 18.8636 15.118ZM24.5868 16C24.4935 16 24.4142 15.972 24.3488 15.916C24.2928 15.8507 24.2648 15.7713 24.2648 15.678V9.056C24.2648 8.96267 24.2928 8.88333 24.3488 8.818C24.4142 8.75267 24.4935 8.72 24.5868 8.72H25.1748C25.2775 8.72 25.3568 8.75267 25.4128 8.818C25.4782 8.874 25.5108 8.95333 25.5108 9.056V9.672C25.8935 9.03733 26.5422 8.72 27.4568 8.72H28.0028C28.1055 8.72 28.1848 8.748 28.2408 8.804C28.2968 8.86 28.3248 8.93933 28.3248 9.042V9.56C28.3248 9.65333 28.2968 9.73267 28.2408 9.798C28.1848 9.854 28.1055 9.882 28.0028 9.882H27.2048C26.6915 9.882 26.2855 10.0313 25.9868 10.33C25.6975 10.6287 25.5528 11.0347 25.5528 11.548V15.678C25.5528 15.7713 25.5202 15.8507 25.4548 15.916C25.3895 15.972 25.3102 16 25.2168 16H24.5868ZM29.8505 16C29.7572 16 29.6778 15.972 29.6125 15.916C29.5565 15.8507 29.5285 15.7713 29.5285 15.678V9.042C29.5285 8.94867 29.5565 8.874 29.6125 8.818C29.6778 8.75267 29.7572 8.72 29.8505 8.72H30.4525C30.5552 8.72 30.6345 8.748 30.6905 8.804C30.7465 8.86 30.7745 8.93933 30.7745 9.042V9.658C31.0545 9.31267 31.3765 9.04667 31.7405 8.86C32.1138 8.67333 32.5758 8.58 33.1265 8.58C34.0225 8.58 34.7178 8.86933 35.2125 9.448C35.7072 10.0173 35.9545 10.7733 35.9545 11.716V15.678C35.9545 15.7713 35.9218 15.8507 35.8565 15.916C35.8005 15.972 35.7258 16 35.6325 16H34.9885C34.8952 16 34.8158 15.972 34.7505 15.916C34.6945 15.8507 34.6665 15.7713 34.6665 15.678V11.8C34.6665 11.128 34.5032 10.6053 34.1765 10.232C33.8498 9.85867 33.3832 9.672 32.7765 9.672C32.1792 9.672 31.7032 9.86333 31.3485 10.246C30.9938 10.6193 30.8165 11.1373 30.8165 11.8V15.678C30.8165 15.7713 30.7838 15.8507 30.7185 15.916C30.6625 15.972 30.5878 16 30.4945 16H29.8505ZM43.7136 16C43.6202 16 43.5409 15.972 43.4756 15.916C43.4196 15.8507 43.3916 15.7713 43.3916 15.678V7.404H40.6896C40.5962 7.404 40.5169 7.376 40.4516 7.32C40.3956 7.25467 40.3676 7.17533 40.3676 7.082V6.536C40.3676 6.43333 40.3956 6.354 40.4516 6.298C40.5169 6.23267 40.5962 6.2 40.6896 6.2H47.4096C47.5122 6.2 47.5916 6.23267 47.6476 6.298C47.7036 6.354 47.7316 6.43333 47.7316 6.536V7.082C47.7316 7.17533 47.6989 7.25467 47.6336 7.32C47.5776 7.376 47.5029 7.404 47.4096 7.404H44.7216V15.678C44.7216 15.7713 44.6889 15.8507 44.6236 15.916C44.5582 15.972 44.4789 16 44.3856 16H43.7136ZM50.7618 16.14C49.7351 16.14 48.9418 15.8507 48.3818 15.272C47.8311 14.6933 47.5371 13.9233 47.4998 12.962L47.4858 12.36L47.4998 11.758C47.5371 10.7967 47.8358 10.0267 48.3958 9.448C48.9651 8.86933 49.7538 8.58 50.7618 8.58C51.7698 8.58 52.5538 8.86933 53.1138 9.448C53.6831 10.0267 53.9865 10.7967 54.0238 11.758C54.0425 11.9633 54.0518 12.164 54.0518 12.36C54.0518 12.556 54.0425 12.7567 54.0238 12.962C53.9865 13.9233 53.6878 14.6933 53.1278 15.272C52.5771 15.8507 51.7885 16.14 50.7618 16.14ZM50.7618 15.09C51.3591 15.09 51.8305 14.9033 52.1758 14.53C52.5305 14.1473 52.7218 13.6013 52.7498 12.892C52.7591 12.7987 52.7638 12.6213 52.7638 12.36C52.7638 12.0987 52.7591 11.9213 52.7498 11.828C52.7218 11.1187 52.5305 10.5773 52.1758 10.204C51.8305 9.82133 51.3591 9.63 50.7618 9.63C50.1645 9.63 49.6885 9.82133 49.3338 10.204C48.9885 10.5773 48.8018 11.1187 48.7738 11.828L48.7598 12.36L48.7738 12.892C48.8018 13.6013 48.9885 14.1473 49.3338 14.53C49.6885 14.9033 50.1645 15.09 50.7618 15.09ZM59.7548 16C59.6615 16 59.5868 15.972 59.5308 15.916C59.4748 15.8507 59.4468 15.7713 59.4468 15.678V6.522C59.4468 6.42867 59.4748 6.354 59.5308 6.298C59.5868 6.23267 59.6615 6.2 59.7548 6.2H60.4548C60.5482 6.2 60.6228 6.23267 60.6788 6.298C60.7348 6.354 60.7628 6.42867 60.7628 6.522V14.824H65.4388C65.5415 14.824 65.6208 14.8567 65.6768 14.922C65.7422 14.978 65.7748 15.0527 65.7748 15.146V15.678C65.7748 15.7713 65.7422 15.8507 65.6768 15.916C65.6115 15.972 65.5322 16 65.4388 16H59.7548ZM69.9161 16.14C68.8894 16.14 68.0961 15.8507 67.5361 15.272C66.9854 14.6933 66.6914 13.9233 66.6541 12.962L66.6401 12.36L66.6541 11.758C66.6914 10.7967 66.9901 10.0267 67.5501 9.448C68.1194 8.86933 68.9081 8.58 69.9161 8.58C70.9241 8.58 71.7081 8.86933 72.2681 9.448C72.8374 10.0267 73.1408 10.7967 73.1781 11.758C73.1968 11.9633 73.2061 12.164 73.2061 12.36C73.2061 12.556 73.1968 12.7567 73.1781 12.962C73.1408 13.9233 72.8421 14.6933 72.2821 15.272C71.7314 15.8507 70.9428 16.14 69.9161 16.14ZM69.9161 15.09C70.5134 15.09 70.9848 14.9033 71.3301 14.53C71.6848 14.1473 71.8761 13.6013 71.9041 12.892C71.9134 12.7987 71.9181 12.6213 71.9181 12.36C71.9181 12.0987 71.9134 11.9213 71.9041 11.828C71.8761 11.1187 71.6848 10.5773 71.3301 10.204C70.9848 9.82133 70.5134 9.63 69.9161 9.63C69.3188 9.63 68.8428 9.82133 68.4881 10.204C68.1428 10.5773 67.9561 11.1187 67.9281 11.828L67.9141 12.36L67.9281 12.892C67.9561 13.6013 68.1428 14.1473 68.4881 14.53C68.8428 14.9033 69.3188 15.09 69.9161 15.09ZM77.2481 16C77.0054 16 76.8327 15.8833 76.7301 15.65L74.1261 9.154C74.1167 9.126 74.1121 9.07933 74.1121 9.014C74.1121 8.93 74.1401 8.86 74.1961 8.804C74.2521 8.748 74.3174 8.72 74.3921 8.72H75.0361C75.1854 8.72 75.2974 8.79467 75.3721 8.944L77.5281 14.53L79.6841 8.944C79.7027 8.888 79.7401 8.83667 79.7961 8.79C79.8614 8.74333 79.9361 8.72 80.0201 8.72H80.6641C80.7387 8.72 80.8041 8.748 80.8601 8.804C80.9161 8.86 80.9441 8.93 80.9441 9.014L80.9161 9.154L78.3261 15.65C78.2234 15.8833 78.0507 16 77.8081 16H77.2481ZM85.0629 16.14C84.1109 16.14 83.3502 15.846 82.7809 15.258C82.2116 14.6607 81.8989 13.8487 81.8429 12.822L81.8289 12.346L81.8429 11.884C81.8989 10.876 82.2116 10.0733 82.7809 9.476C83.3502 8.87867 84.1109 8.58 85.0629 8.58C86.0896 8.58 86.8829 8.90667 87.4429 9.56C88.0122 10.2133 88.2969 11.1 88.2969 12.22V12.472C88.2969 12.5653 88.2642 12.6447 88.1989 12.71C88.1429 12.766 88.0682 12.794 87.9749 12.794H83.1169V12.92C83.1449 13.5267 83.3316 14.0447 83.6769 14.474C84.0222 14.9033 84.4796 15.118 85.0489 15.118C85.4876 15.118 85.8422 15.034 86.1129 14.866C86.3929 14.6887 86.6029 14.5067 86.7429 14.32C86.8269 14.208 86.8922 14.1427 86.9389 14.124C86.9856 14.096 87.0649 14.082 87.1769 14.082H87.7929C87.8769 14.082 87.9469 14.1053 88.0029 14.152C88.0682 14.1987 88.1009 14.2593 88.1009 14.334C88.1009 14.5393 87.9749 14.7867 87.7229 15.076C87.4709 15.3653 87.1116 15.6173 86.6449 15.832C86.1876 16.0373 85.6602 16.14 85.0629 16.14ZM87.0229 11.842V11.8C87.0229 11.1467 86.8456 10.6147 86.4909 10.204C86.1362 9.79333 85.6602 9.588 85.0629 9.588C84.4562 9.588 83.9802 9.79333 83.6349 10.204C83.2896 10.6147 83.1169 11.1467 83.1169 11.8V11.842H87.0229ZM97.1685 16.14C95.9552 16.14 95.0125 15.804 94.3405 15.132C93.6685 14.46 93.3092 13.55 93.2625 12.402C93.2532 12.122 93.2485 11.6833 93.2485 11.086C93.2485 10.4793 93.2532 10.0407 93.2625 9.77C93.2999 8.63133 93.6545 7.73067 94.3265 7.068C95.0079 6.396 95.9552 6.06 97.1685 6.06C97.9899 6.06 98.6852 6.20933 99.2545 6.508C99.8239 6.80667 100.253 7.166 100.543 7.586C100.832 7.99667 100.986 8.37933 101.005 8.734V8.762C101.005 8.83667 100.972 8.902 100.907 8.958C100.851 9.00467 100.785 9.028 100.711 9.028H99.9265C99.8425 9.028 99.7772 9.00933 99.7305 8.972C99.6932 8.93467 99.6559 8.86467 99.6185 8.762C99.4692 8.32333 99.1939 7.95467 98.7925 7.656C98.3912 7.35733 97.8499 7.208 97.1685 7.208C96.3845 7.208 95.7685 7.42267 95.3205 7.852C94.8725 8.28133 94.6345 8.944 94.6065 9.84C94.5972 10.1107 94.5925 10.526 94.5925 11.086C94.5925 11.6367 94.5972 12.052 94.6065 12.332C94.6345 13.2373 94.8725 13.9047 95.3205 14.334C95.7685 14.7633 96.3845 14.978 97.1685 14.978C97.9619 14.978 98.5965 14.7633 99.0725 14.334C99.5485 13.8953 99.7865 13.242 99.7865 12.374V11.772H97.6445C97.5512 11.772 97.4719 11.7393 97.4065 11.674C97.3505 11.6087 97.3225 11.5293 97.3225 11.436V11.016C97.3225 10.9227 97.3505 10.8433 97.4065 10.778C97.4719 10.7127 97.5512 10.68 97.6445 10.68H100.781C100.883 10.68 100.963 10.7127 101.019 10.778C101.084 10.834 101.117 10.9133 101.117 11.016V12.346C101.117 13.102 100.958 13.7693 100.641 14.348C100.333 14.9173 99.8799 15.3607 99.2825 15.678C98.6852 15.986 97.9805 16.14 97.1685 16.14ZM103.268 16C103.175 16 103.096 15.972 103.03 15.916C102.974 15.8507 102.946 15.7713 102.946 15.678V9.056C102.946 8.96267 102.974 8.88333 103.03 8.818C103.096 8.75267 103.175 8.72 103.268 8.72H103.856C103.959 8.72 104.038 8.75267 104.094 8.818C104.16 8.874 104.192 8.95333 104.192 9.056V9.672C104.575 9.03733 105.224 8.72 106.138 8.72H106.684C106.787 8.72 106.866 8.748 106.922 8.804C106.978 8.86 107.006 8.93933 107.006 9.042V9.56C107.006 9.65333 106.978 9.73267 106.922 9.798C106.866 9.854 106.787 9.882 106.684 9.882H105.886C105.373 9.882 104.967 10.0313 104.668 10.33C104.379 10.6287 104.234 11.0347 104.234 11.548V15.678C104.234 15.7713 104.202 15.8507 104.136 15.916C104.071 15.972 103.992 16 103.898 16H103.268ZM111.027 16.14C110.001 16.14 109.207 15.8507 108.647 15.272C108.097 14.6933 107.803 13.9233 107.765 12.962L107.751 12.36L107.765 11.758C107.803 10.7967 108.101 10.0267 108.661 9.448C109.231 8.86933 110.019 8.58 111.027 8.58C112.035 8.58 112.819 8.86933 113.379 9.448C113.949 10.0267 114.252 10.7967 114.289 11.758C114.308 11.9633 114.317 12.164 114.317 12.36C114.317 12.556 114.308 12.7567 114.289 12.962C114.252 13.9233 113.953 14.6933 113.393 15.272C112.843 15.8507 112.054 16.14 111.027 16.14ZM111.027 15.09C111.625 15.09 112.096 14.9033 112.441 14.53C112.796 14.1473 112.987 13.6013 113.015 12.892C113.025 12.7987 113.029 12.6213 113.029 12.36C113.029 12.0987 113.025 11.9213 113.015 11.828C112.987 11.1187 112.796 10.5773 112.441 10.204C112.096 9.82133 111.625 9.63 111.027 9.63C110.43 9.63 109.954 9.82133 109.599 10.204C109.254 10.5773 109.067 11.1187 109.039 11.828L109.025 12.36L109.039 12.892C109.067 13.6013 109.254 14.1473 109.599 14.53C109.954 14.9033 110.43 15.09 111.027 15.09ZM117.826 16C117.695 16 117.597 15.972 117.532 15.916C117.466 15.86 117.415 15.7713 117.378 15.65L115.39 9.154L115.362 9.014C115.362 8.93 115.39 8.86 115.446 8.804C115.502 8.748 115.572 8.72 115.656 8.72H116.23C116.323 8.72 116.398 8.748 116.454 8.804C116.519 8.85067 116.556 8.89733 116.566 8.944L118.148 14.292L119.828 9.014C119.846 8.93933 119.888 8.874 119.954 8.818C120.019 8.75267 120.108 8.72 120.22 8.72H120.668C120.78 8.72 120.868 8.75267 120.934 8.818C120.999 8.874 121.041 8.93933 121.06 9.014L122.74 14.292L124.322 8.944C124.331 8.89733 124.364 8.85067 124.42 8.804C124.485 8.748 124.564 8.72 124.658 8.72H125.232C125.316 8.72 125.386 8.748 125.442 8.804C125.498 8.86 125.526 8.93 125.526 9.014L125.498 9.154L123.51 15.65C123.472 15.7713 123.421 15.86 123.356 15.916C123.29 15.972 123.192 16 123.062 16H122.558C122.315 16 122.156 15.8833 122.082 15.65L120.444 10.582L118.806 15.65C118.731 15.8833 118.572 16 118.33 16H117.826ZM129.891 16C128.444 16 127.721 15.1833 127.721 13.55V9.798H126.615C126.522 9.798 126.447 9.77 126.391 9.714C126.335 9.658 126.307 9.58333 126.307 9.49V9.042C126.307 8.94867 126.335 8.874 126.391 8.818C126.447 8.75267 126.522 8.72 126.615 8.72H127.721V6.382C127.721 6.28867 127.749 6.214 127.805 6.158C127.861 6.09267 127.936 6.06 128.029 6.06H128.645C128.738 6.06 128.813 6.09267 128.869 6.158C128.934 6.214 128.967 6.28867 128.967 6.382V8.72H130.703C130.796 8.72 130.871 8.75267 130.927 8.818C130.992 8.874 131.025 8.94867 131.025 9.042V9.49C131.025 9.58333 130.992 9.658 130.927 9.714C130.871 9.77 130.796 9.798 130.703 9.798H128.967V13.452C128.967 13.928 129.042 14.2873 129.191 14.53C129.35 14.7727 129.616 14.894 129.989 14.894H130.843C130.936 14.894 131.011 14.9267 131.067 14.992C131.123 15.048 131.151 15.1227 131.151 15.216V15.678C131.151 15.7713 131.123 15.8507 131.067 15.916C131.011 15.972 130.936 16 130.843 16H129.891ZM132.855 16C132.761 16 132.682 15.972 132.617 15.916C132.561 15.8507 132.533 15.7713 132.533 15.678V6.382C132.533 6.27933 132.561 6.2 132.617 6.144C132.682 6.088 132.761 6.06 132.855 6.06H133.499C133.601 6.06 133.681 6.088 133.737 6.144C133.793 6.2 133.821 6.27933 133.821 6.382V9.644C134.091 9.29867 134.409 9.03733 134.773 8.86C135.146 8.67333 135.603 8.58 136.145 8.58C137.041 8.58 137.736 8.86933 138.231 9.448C138.735 10.0173 138.987 10.7733 138.987 11.716V15.678C138.987 15.7713 138.954 15.8507 138.889 15.916C138.833 15.972 138.758 16 138.665 16H138.007C137.913 16 137.834 15.972 137.769 15.916C137.713 15.8507 137.685 15.7713 137.685 15.678V11.8C137.685 11.128 137.521 10.6053 137.195 10.232C136.868 9.85867 136.397 9.672 135.781 9.672C135.183 9.672 134.707 9.86333 134.353 10.246C133.998 10.6193 133.821 11.1373 133.821 11.8V15.678C133.821 15.7713 133.788 15.8507 133.723 15.916C133.667 15.972 133.592 16 133.499 16H132.855ZM143.595 16C143.52 16 143.455 15.972 143.399 15.916C143.343 15.86 143.315 15.7947 143.315 15.72L143.343 15.566L146.815 6.508C146.89 6.30267 147.039 6.2 147.263 6.2H148.159C148.383 6.2 148.532 6.30267 148.607 6.508L152.079 15.566L152.107 15.72C152.107 15.7947 152.074 15.86 152.009 15.916C151.953 15.972 151.888 16 151.813 16H151.155C151.062 16 150.982 15.9767 150.917 15.93C150.861 15.874 150.824 15.818 150.805 15.762L150.021 13.746H145.387L144.617 15.762C144.542 15.9207 144.426 16 144.267 16H143.595ZM145.793 12.584H149.629L147.711 7.558L145.793 12.584ZM153.759 16C153.665 16 153.586 15.972 153.521 15.916C153.465 15.8507 153.437 15.7713 153.437 15.678V9.042C153.437 8.94867 153.465 8.874 153.521 8.818C153.586 8.75267 153.665 8.72 153.759 8.72H154.361C154.463 8.72 154.543 8.748 154.599 8.804C154.655 8.86 154.683 8.93933 154.683 9.042V9.658C154.963 9.31267 155.285 9.04667 155.649 8.86C156.022 8.67333 156.484 8.58 157.035 8.58C157.931 8.58 158.626 8.86933 159.121 9.448C159.615 10.0173 159.863 10.7733 159.863 11.716V15.678C159.863 15.7713 159.83 15.8507 159.765 15.916C159.709 15.972 159.634 16 159.541 16H158.897C158.803 16 158.724 15.972 158.659 15.916C158.603 15.8507 158.575 15.7713 158.575 15.678V11.8C158.575 11.128 158.411 10.6053 158.085 10.232C157.758 9.85867 157.291 9.672 156.685 9.672C156.087 9.672 155.611 9.86333 155.257 10.246C154.902 10.6193 154.725 11.1373 154.725 11.8V15.678C154.725 15.7713 154.692 15.8507 154.627 15.916C154.571 15.972 154.496 16 154.403 16H153.759ZM164.546 16.14C163.566 16.14 162.829 15.8227 162.334 15.188C161.849 14.5533 161.587 13.7507 161.55 12.78L161.536 12.36L161.55 11.94C161.587 10.9787 161.853 10.1807 162.348 9.546C162.843 8.902 163.575 8.58 164.546 8.58C165.517 8.58 166.273 8.92533 166.814 9.616V6.382C166.814 6.28867 166.842 6.214 166.898 6.158C166.963 6.09267 167.043 6.06 167.136 6.06H167.766C167.859 6.06 167.934 6.09267 167.99 6.158C168.055 6.214 168.088 6.28867 168.088 6.382V15.678C168.088 15.7713 168.055 15.8507 167.99 15.916C167.934 15.972 167.859 16 167.766 16H167.164C167.071 16 166.996 15.972 166.94 15.916C166.884 15.8507 166.856 15.7713 166.856 15.678V15.076C166.324 15.7853 165.554 16.14 164.546 16.14ZM164.812 15.048C165.465 15.048 165.955 14.8333 166.282 14.404C166.609 13.9653 166.786 13.4473 166.814 12.85C166.823 12.7473 166.828 12.57 166.828 12.318C166.828 12.0567 166.823 11.8747 166.814 11.772C166.795 11.2027 166.613 10.7127 166.268 10.302C165.932 9.882 165.447 9.672 164.812 9.672C164.14 9.672 163.65 9.882 163.342 10.302C163.034 10.722 162.866 11.2727 162.838 11.954L162.824 12.36C162.824 14.152 163.487 15.048 164.812 15.048ZM4.732 38.14C3.49067 38.14 2.54333 37.804 1.89 37.132C1.246 36.4507 0.900667 35.522 0.854 34.346C0.844667 34.094 0.84 33.6833 0.84 33.114C0.84 32.5353 0.844667 32.1153 0.854 31.854C0.900667 30.678 1.246 29.754 1.89 29.082C2.54333 28.4007 3.49067 28.06 4.732 28.06C5.56267 28.06 6.26733 28.2093 6.846 28.508C7.42467 28.7973 7.85867 29.18 8.148 29.656C8.44667 30.132 8.61 30.6407 8.638 31.182C8.638 31.266 8.60533 31.336 8.54 31.392C8.484 31.4387 8.414 31.462 8.33 31.462H7.63C7.53667 31.462 7.462 31.4387 7.406 31.392C7.35 31.3453 7.308 31.266 7.28 31.154C7.12133 30.4353 6.832 29.9313 6.412 29.642C6.00133 29.3527 5.44133 29.208 4.732 29.208C3.108 29.208 2.26333 30.1133 2.198 31.924C2.18867 32.176 2.184 32.5633 2.184 33.086C2.184 33.6087 2.18867 34.0053 2.198 34.276C2.26333 36.0773 3.108 36.978 4.732 36.978C5.432 36.978 5.992 36.8333 6.412 36.544C6.832 36.2547 7.12133 35.7553 7.28 35.046C7.308 34.934 7.35 34.8547 7.406 34.808C7.462 34.7613 7.53667 34.738 7.63 34.738H8.33C8.414 34.738 8.484 34.766 8.54 34.822C8.60533 34.8687 8.638 34.934 8.638 35.018C8.61 35.5593 8.44667 36.068 8.148 36.544C7.85867 37.02 7.42467 37.4073 6.846 37.706C6.26733 37.9953 5.56267 38.14 4.732 38.14ZM10.6965 38C10.6032 38 10.5239 37.972 10.4585 37.916C10.4025 37.8507 10.3745 37.7713 10.3745 37.678V28.382C10.3745 28.2793 10.4025 28.2 10.4585 28.144C10.5239 28.088 10.6032 28.06 10.6965 28.06H11.3405C11.4432 28.06 11.5225 28.088 11.5785 28.144C11.6345 28.2 11.6625 28.2793 11.6625 28.382V31.644C11.9332 31.2987 12.2505 31.0373 12.6145 30.86C12.9879 30.6733 13.4452 30.58 13.9865 30.58C14.8825 30.58 15.5779 30.8693 16.0725 31.448C16.5765 32.0173 16.8285 32.7733 16.8285 33.716V37.678C16.8285 37.7713 16.7959 37.8507 16.7305 37.916C16.6745 37.972 16.5999 38 16.5065 38H15.8485C15.7552 38 15.6759 37.972 15.6105 37.916C15.5545 37.8507 15.5265 37.7713 15.5265 37.678V33.8C15.5265 33.128 15.3632 32.6053 15.0365 32.232C14.7099 31.8587 14.2385 31.672 13.6225 31.672C13.0252 31.672 12.5492 31.8633 12.1945 32.246C11.8399 32.6193 11.6625 33.1373 11.6625 33.8V37.678C11.6625 37.7713 11.6299 37.8507 11.5645 37.916C11.5085 37.972 11.4339 38 11.3405 38H10.6965ZM20.8805 38.14C20.4231 38.14 19.9985 38.0467 19.6065 37.86C19.2238 37.6733 18.9158 37.4213 18.6825 37.104C18.4585 36.7773 18.3465 36.418 18.3465 36.026C18.3465 35.41 18.5985 34.906 19.1025 34.514C19.6065 34.122 20.2925 33.8607 21.1605 33.73L23.2605 33.436V33.03C23.2605 32.0687 22.7051 31.588 21.5945 31.588C21.1651 31.588 20.8198 31.6767 20.5585 31.854C20.2971 32.022 20.1058 32.2227 19.9845 32.456C19.9471 32.5493 19.9051 32.6147 19.8585 32.652C19.8211 32.68 19.7651 32.694 19.6905 32.694H19.1445C19.0605 32.694 18.9858 32.666 18.9205 32.61C18.8645 32.5447 18.8365 32.47 18.8365 32.386C18.8365 32.1713 18.9345 31.924 19.1305 31.644C19.3358 31.3547 19.6485 31.1073 20.0685 30.902C20.4885 30.6873 21.0018 30.58 21.6085 30.58C22.6538 30.58 23.4005 30.8227 23.8485 31.308C24.3058 31.7933 24.5345 32.4 24.5345 33.128V37.678C24.5345 37.7713 24.5018 37.8507 24.4365 37.916C24.3805 37.972 24.3058 38 24.2125 38H23.5965C23.5031 38 23.4285 37.972 23.3725 37.916C23.3165 37.8507 23.2885 37.7713 23.2885 37.678V37.062C23.0831 37.37 22.7845 37.6267 22.3925 37.832C22.0005 38.0373 21.4965 38.14 20.8805 38.14ZM21.1605 37.118C21.7765 37.118 22.2805 36.9173 22.6725 36.516C23.0645 36.1147 23.2605 35.5313 23.2605 34.766V34.374L21.6225 34.612C20.9505 34.7053 20.4418 34.864 20.0965 35.088C19.7511 35.312 19.5785 35.592 19.5785 35.928C19.5785 36.3107 19.7325 36.6047 20.0405 36.81C20.3578 37.0153 20.7311 37.118 21.1605 37.118ZM26.8837 38C26.7904 38 26.7111 37.972 26.6457 37.916C26.5897 37.8507 26.5617 37.7713 26.5617 37.678V31.042C26.5617 30.9487 26.5897 30.874 26.6457 30.818C26.7111 30.7527 26.7904 30.72 26.8837 30.72H27.4857C27.5884 30.72 27.6677 30.748 27.7237 30.804C27.7797 30.86 27.8077 30.9393 27.8077 31.042V31.658C28.0877 31.3127 28.4097 31.0467 28.7737 30.86C29.1471 30.6733 29.6091 30.58 30.1597 30.58C31.0557 30.58 31.7511 30.8693 32.2457 31.448C32.7404 32.0173 32.9877 32.7733 32.9877 33.716V37.678C32.9877 37.7713 32.9551 37.8507 32.8897 37.916C32.8337 37.972 32.7591 38 32.6657 38H32.0217C31.9284 38 31.8491 37.972 31.7837 37.916C31.7277 37.8507 31.6997 37.7713 31.6997 37.678V33.8C31.6997 33.128 31.5364 32.6053 31.2097 32.232C30.8831 31.8587 30.4164 31.672 29.8097 31.672C29.2124 31.672 28.7364 31.8633 28.3817 32.246C28.0271 32.6193 27.8497 33.1373 27.8497 33.8V37.678C27.8497 37.7713 27.8171 37.8507 27.7517 37.916C27.6957 37.972 27.6211 38 27.5277 38H26.8837ZM37.9649 41.08C37.1903 41.08 36.5696 40.9493 36.1029 40.688C35.6363 40.4267 35.3049 40.128 35.1089 39.792C34.9223 39.456 34.8289 39.1667 34.8289 38.924C34.8289 38.84 34.8616 38.7653 34.9269 38.7C34.9923 38.644 35.0669 38.616 35.1509 38.616H35.7669C35.8509 38.616 35.9209 38.6347 35.9769 38.672C36.0329 38.7187 36.0796 38.798 36.1169 38.91C36.3783 39.6567 36.9709 40.03 37.8949 40.03C38.5949 40.03 39.1129 39.8807 39.4489 39.582C39.7849 39.2833 39.9529 38.756 39.9529 38V37.034C39.4116 37.7247 38.6556 38.07 37.6849 38.07C36.6956 38.07 35.9536 37.7527 35.4589 37.118C34.9736 36.4833 34.7169 35.6807 34.6889 34.71L34.6749 34.318L34.6889 33.94C34.7169 32.9787 34.9736 32.1807 35.4589 31.546C35.9536 30.902 36.6956 30.58 37.6849 30.58C38.6649 30.58 39.4303 30.9393 39.9809 31.658V31.056C39.9809 30.9627 40.0089 30.8833 40.0649 30.818C40.1303 30.7527 40.2096 30.72 40.3029 30.72H40.9049C40.9983 30.72 41.0729 30.7527 41.1289 30.818C41.1943 30.8833 41.2269 30.9627 41.2269 31.056V37.846C41.2269 40.002 40.1396 41.08 37.9649 41.08ZM37.9369 36.978C38.5903 36.978 39.0803 36.768 39.4069 36.348C39.7429 35.9187 39.9249 35.4053 39.9529 34.808C39.9623 34.724 39.9669 34.5607 39.9669 34.318C39.9669 34.0847 39.9623 33.926 39.9529 33.842C39.9249 33.2447 39.7429 32.736 39.4069 32.316C39.0803 31.8867 38.5903 31.672 37.9369 31.672C37.2649 31.672 36.7749 31.8867 36.4669 32.316C36.1683 32.736 36.0049 33.282 35.9769 33.954L35.9629 34.318L35.9769 34.696C36.0049 35.368 36.1683 35.9187 36.4669 36.348C36.7749 36.768 37.2649 36.978 37.9369 36.978ZM46.2211 38.14C45.2691 38.14 44.5084 37.846 43.9391 37.258C43.3698 36.6607 43.0571 35.8487 43.0011 34.822L42.9871 34.346L43.0011 33.884C43.0571 32.876 43.3698 32.0733 43.9391 31.476C44.5084 30.8787 45.2691 30.58 46.2211 30.58C47.2478 30.58 48.0411 30.9067 48.6011 31.56C49.1704 32.2133 49.4551 33.1 49.4551 34.22V34.472C49.4551 34.5653 49.4224 34.6447 49.3571 34.71C49.3011 34.766 49.2264 34.794 49.1331 34.794H44.2751V34.92C44.3031 35.5267 44.4898 36.0447 44.8351 36.474C45.1804 36.9033 45.6378 37.118 46.2071 37.118C46.6458 37.118 47.0004 37.034 47.2711 36.866C47.5511 36.6887 47.7611 36.5067 47.9011 36.32C47.9851 36.208 48.0504 36.1427 48.0971 36.124C48.1438 36.096 48.2231 36.082 48.3351 36.082H48.9511C49.0351 36.082 49.1051 36.1053 49.1611 36.152C49.2264 36.1987 49.2591 36.2593 49.2591 36.334C49.2591 36.5393 49.1331 36.7867 48.8811 37.076C48.6291 37.3653 48.2698 37.6173 47.8031 37.832C47.3458 38.0373 46.8184 38.14 46.2211 38.14ZM48.1811 33.842V33.8C48.1811 33.1467 48.0038 32.6147 47.6491 32.204C47.2944 31.7933 46.8184 31.588 46.2211 31.588C45.6144 31.588 45.1384 31.7933 44.7931 32.204C44.4478 32.6147 44.2751 33.1467 44.2751 33.8V33.842H48.1811ZM53.7299 38C53.6553 38 53.5899 37.972 53.5339 37.916C53.4779 37.86 53.4499 37.7947 53.4499 37.72L53.4779 37.566L56.9499 28.508C57.0246 28.3027 57.1739 28.2 57.3979 28.2H58.2939C58.5179 28.2 58.6673 28.3027 58.7419 28.508L62.2139 37.566L62.2419 37.72C62.2419 37.7947 62.2093 37.86 62.1439 37.916C62.0879 37.972 62.0226 38 61.9479 38H61.2899C61.1966 38 61.1173 37.9767 61.0519 37.93C60.9959 37.874 60.9586 37.818 60.9399 37.762L60.1559 35.746H55.5219L54.7519 37.762C54.6773 37.9207 54.5606 38 54.4019 38H53.7299ZM55.9279 34.584H59.7639L57.8459 29.558L55.9279 34.584ZM63.8935 38C63.8002 38 63.7208 37.972 63.6555 37.916C63.5995 37.8507 63.5715 37.7713 63.5715 37.678V31.042C63.5715 30.9487 63.5995 30.874 63.6555 30.818C63.7208 30.7527 63.8002 30.72 63.8935 30.72H64.4955C64.5982 30.72 64.6775 30.748 64.7335 30.804C64.7895 30.86 64.8175 30.9393 64.8175 31.042V31.658C65.0975 31.3127 65.4195 31.0467 65.7835 30.86C66.1568 30.6733 66.6188 30.58 67.1695 30.58C68.0655 30.58 68.7608 30.8693 69.2555 31.448C69.7502 32.0173 69.9975 32.7733 69.9975 33.716V37.678C69.9975 37.7713 69.9648 37.8507 69.8995 37.916C69.8435 37.972 69.7688 38 69.6755 38H69.0315C68.9382 38 68.8588 37.972 68.7935 37.916C68.7375 37.8507 68.7095 37.7713 68.7095 37.678V33.8C68.7095 33.128 68.5462 32.6053 68.2195 32.232C67.8928 31.8587 67.4262 31.672 66.8195 31.672C66.2222 31.672 65.7462 31.8633 65.3915 32.246C65.0368 32.6193 64.8595 33.1373 64.8595 33.8V37.678C64.8595 37.7713 64.8268 37.8507 64.7615 37.916C64.7055 37.972 64.6308 38 64.5375 38H63.8935ZM74.6807 38.14C73.7007 38.14 72.9634 37.8227 72.4687 37.188C71.9834 36.5533 71.722 35.7507 71.6847 34.78L71.6707 34.36L71.6847 33.94C71.722 32.9787 71.988 32.1807 72.4827 31.546C72.9774 30.902 73.71 30.58 74.6807 30.58C75.6514 30.58 76.4074 30.9253 76.9487 31.616V28.382C76.9487 28.2887 76.9767 28.214 77.0327 28.158C77.098 28.0927 77.1774 28.06 77.2707 28.06H77.9007C77.994 28.06 78.0687 28.0927 78.1247 28.158C78.19 28.214 78.2227 28.2887 78.2227 28.382V37.678C78.2227 37.7713 78.19 37.8507 78.1247 37.916C78.0687 37.972 77.994 38 77.9007 38H77.2987C77.2054 38 77.1307 37.972 77.0747 37.916C77.0187 37.8507 76.9907 37.7713 76.9907 37.678V37.076C76.4587 37.7853 75.6887 38.14 74.6807 38.14ZM74.9467 37.048C75.6 37.048 76.09 36.8333 76.4167 36.404C76.7434 35.9653 76.9207 35.4473 76.9487 34.85C76.958 34.7473 76.9627 34.57 76.9627 34.318C76.9627 34.0567 76.958 33.8747 76.9487 33.772C76.93 33.2027 76.748 32.7127 76.4027 32.302C76.0667 31.882 75.5814 31.672 74.9467 31.672C74.2747 31.672 73.7847 31.882 73.4767 32.302C73.1687 32.722 73.0007 33.2727 72.9727 33.954L72.9587 34.36C72.9587 36.152 73.6214 37.048 74.9467 37.048ZM86.4767 38C86.3834 38 86.304 37.972 86.2387 37.916C86.1827 37.8507 86.1547 37.7713 86.1547 37.678V34.36L82.7807 28.662C82.7527 28.606 82.7387 28.5453 82.7387 28.48C82.7387 28.4053 82.7667 28.34 82.8227 28.284C82.8787 28.228 82.944 28.2 83.0187 28.2H83.6907C83.8587 28.2 83.98 28.2793 84.0547 28.438L86.8267 33.016L89.5847 28.438C89.678 28.2793 89.7994 28.2 89.9487 28.2H90.6207C90.6954 28.2 90.7607 28.228 90.8167 28.284C90.882 28.34 90.9147 28.4053 90.9147 28.48C90.9147 28.5267 90.896 28.5873 90.8587 28.662L87.4847 34.36V37.678C87.4847 37.7713 87.452 37.8507 87.3867 37.916C87.3307 37.972 87.2514 38 87.1487 38H86.4767ZM94.1563 38.14C93.1297 38.14 92.3363 37.8507 91.7763 37.272C91.2257 36.6933 90.9317 35.9233 90.8943 34.962L90.8803 34.36L90.8943 33.758C90.9317 32.7967 91.2303 32.0267 91.7903 31.448C92.3597 30.8693 93.1483 30.58 94.1563 30.58C95.1643 30.58 95.9483 30.8693 96.5083 31.448C97.0777 32.0267 97.381 32.7967 97.4183 33.758C97.437 33.9633 97.4463 34.164 97.4463 34.36C97.4463 34.556 97.437 34.7567 97.4183 34.962C97.381 35.9233 97.0823 36.6933 96.5223 37.272C95.9717 37.8507 95.183 38.14 94.1563 38.14ZM94.1563 37.09C94.7537 37.09 95.225 36.9033 95.5703 36.53C95.925 36.1473 96.1163 35.6013 96.1443 34.892C96.1537 34.7987 96.1583 34.6213 96.1583 34.36C96.1583 34.0987 96.1537 33.9213 96.1443 33.828C96.1163 33.1187 95.925 32.5773 95.5703 32.204C95.225 31.8213 94.7537 31.63 94.1563 31.63C93.559 31.63 93.083 31.8213 92.7283 32.204C92.383 32.5773 92.1963 33.1187 92.1683 33.828L92.1543 34.36L92.1683 34.892C92.1963 35.6013 92.383 36.1473 92.7283 36.53C93.083 36.9033 93.559 37.09 94.1563 37.09ZM101.93 38.14C101.043 38.14 100.357 37.8553 99.8721 37.286C99.3867 36.7073 99.1441 35.942 99.1441 34.99V31.042C99.1441 30.9487 99.1721 30.874 99.2281 30.818C99.2934 30.7527 99.3727 30.72 99.4661 30.72H100.11C100.203 30.72 100.278 30.7527 100.334 30.818C100.399 30.874 100.432 30.9487 100.432 31.042V34.92C100.432 36.3387 101.048 37.048 102.28 37.048C102.877 37.048 103.349 36.8613 103.694 36.488C104.049 36.1053 104.226 35.5827 104.226 34.92V31.042C104.226 30.9487 104.254 30.874 104.31 30.818C104.375 30.7527 104.455 30.72 104.548 30.72H105.192C105.285 30.72 105.36 30.7527 105.416 30.818C105.481 30.874 105.514 30.9487 105.514 31.042V37.678C105.514 37.7713 105.481 37.8507 105.416 37.916C105.36 37.972 105.285 38 105.192 38H104.59C104.497 38 104.417 37.972 104.352 37.916C104.296 37.8507 104.268 37.7713 104.268 37.678V37.048C103.997 37.412 103.68 37.6873 103.316 37.874C102.952 38.0513 102.49 38.14 101.93 38.14ZM112.655 38C112.422 38 112.277 37.8787 112.221 37.636L110.415 28.634L110.387 28.48C110.387 28.4053 110.415 28.34 110.471 28.284C110.527 28.228 110.593 28.2 110.667 28.2H111.353C111.549 28.2 111.661 28.2793 111.689 28.438L113.131 35.746L114.685 30.706C114.741 30.482 114.886 30.37 115.119 30.37H115.609C115.833 30.37 115.983 30.482 116.057 30.706L117.597 35.746L119.039 28.438C119.067 28.2793 119.184 28.2 119.389 28.2H120.061C120.136 28.2 120.201 28.228 120.257 28.284C120.313 28.34 120.341 28.4053 120.341 28.48C120.341 28.536 120.337 28.5873 120.327 28.634L118.507 37.636C118.461 37.8787 118.316 38 118.073 38H117.569C117.336 38 117.182 37.8833 117.107 37.65L115.371 32.26L113.621 37.65C113.556 37.8833 113.407 38 113.173 38H112.655ZM122.215 29.348C122.122 29.348 122.042 29.32 121.977 29.264C121.921 29.1987 121.893 29.1193 121.893 29.026V28.298C121.893 28.2047 121.921 28.1253 121.977 28.06C122.042 27.9947 122.122 27.962 122.215 27.962H123.041C123.134 27.962 123.214 27.9947 123.279 28.06C123.344 28.1253 123.377 28.2047 123.377 28.298V29.026C123.377 29.1193 123.344 29.1987 123.279 29.264C123.214 29.32 123.134 29.348 123.041 29.348H122.215ZM122.327 38C122.234 38 122.154 37.972 122.089 37.916C122.033 37.8507 122.005 37.7713 122.005 37.678V31.042C122.005 30.9487 122.033 30.874 122.089 30.818C122.154 30.7527 122.234 30.72 122.327 30.72H122.943C123.036 30.72 123.111 30.7527 123.167 30.818C123.232 30.874 123.265 30.9487 123.265 31.042V37.678C123.265 37.7713 123.232 37.8507 123.167 37.916C123.111 37.972 123.036 38 122.943 38H122.327ZM125.704 38C125.611 38 125.532 37.972 125.466 37.916C125.41 37.8507 125.382 37.7713 125.382 37.678V28.382C125.382 28.2793 125.41 28.2 125.466 28.144C125.532 28.088 125.611 28.06 125.704 28.06H126.32C126.414 28.06 126.488 28.0927 126.544 28.158C126.61 28.214 126.642 28.2887 126.642 28.382V37.678C126.642 37.7713 126.61 37.8507 126.544 37.916C126.488 37.972 126.414 38 126.32 38H125.704ZM129.081 38C128.988 38 128.909 37.972 128.843 37.916C128.787 37.8507 128.759 37.7713 128.759 37.678V28.382C128.759 28.2793 128.787 28.2 128.843 28.144C128.909 28.088 128.988 28.06 129.081 28.06H129.697C129.791 28.06 129.865 28.0927 129.921 28.158C129.987 28.214 130.019 28.2887 130.019 28.382V37.678C130.019 37.7713 129.987 37.8507 129.921 37.916C129.865 37.972 129.791 38 129.697 38H129.081ZM136.058 38C135.964 38 135.89 37.972 135.834 37.916C135.778 37.8507 135.75 37.7713 135.75 37.678V28.536C135.75 28.4333 135.778 28.354 135.834 28.298C135.89 28.2327 135.964 28.2 136.058 28.2H139.88C140.869 28.2 141.616 28.438 142.12 28.914C142.624 29.39 142.876 30.0107 142.876 30.776C142.876 31.2987 142.754 31.7373 142.512 32.092C142.269 32.4373 141.984 32.6893 141.658 32.848C142.059 33.044 142.395 33.3473 142.666 33.758C142.936 34.1687 143.072 34.64 143.072 35.172C143.072 35.6947 142.95 36.1707 142.708 36.6C142.474 37.0293 142.124 37.37 141.658 37.622C141.191 37.874 140.636 38 139.992 38H136.058ZM139.67 32.358C140.276 32.358 140.738 32.2227 141.056 31.952C141.373 31.672 141.532 31.2847 141.532 30.79C141.532 30.3047 141.373 29.936 141.056 29.684C140.748 29.432 140.286 29.306 139.67 29.306H137.066V32.358H139.67ZM139.81 36.894C140.407 36.894 140.874 36.7353 141.21 36.418C141.555 36.0913 141.728 35.676 141.728 35.172C141.728 34.6587 141.555 34.2433 141.21 33.926C140.874 33.6087 140.407 33.45 139.81 33.45H137.066V36.894H139.81ZM147.789 38.14C146.837 38.14 146.077 37.846 145.507 37.258C144.938 36.6607 144.625 35.8487 144.569 34.822L144.555 34.346L144.569 33.884C144.625 32.876 144.938 32.0733 145.507 31.476C146.077 30.8787 146.837 30.58 147.789 30.58C148.816 30.58 149.609 30.9067 150.169 31.56C150.739 32.2133 151.023 33.1 151.023 34.22V34.472C151.023 34.5653 150.991 34.6447 150.925 34.71C150.869 34.766 150.795 34.794 150.701 34.794H145.843V34.92C145.871 35.5267 146.058 36.0447 146.403 36.474C146.749 36.9033 147.206 37.118 147.775 37.118C148.214 37.118 148.569 37.034 148.839 36.866C149.119 36.6887 149.329 36.5067 149.469 36.32C149.553 36.208 149.619 36.1427 149.665 36.124C149.712 36.096 149.791 36.082 149.903 36.082H150.519C150.603 36.082 150.673 36.1053 150.729 36.152C150.795 36.1987 150.827 36.2593 150.827 36.334C150.827 36.5393 150.701 36.7867 150.449 37.076C150.197 37.3653 149.838 37.6173 149.371 37.832C148.914 38.0373 148.387 38.14 147.789 38.14ZM149.749 33.842V33.8C149.749 33.1467 149.572 32.6147 149.217 32.204C148.863 31.7933 148.387 31.588 147.789 31.588C147.183 31.588 146.707 31.7933 146.361 32.204C146.016 32.6147 145.843 33.1467 145.843 33.8V33.842H149.749ZM155.298 38C155.224 38 155.158 37.972 155.102 37.916C155.046 37.86 155.018 37.7947 155.018 37.72L155.046 37.566L158.518 28.508C158.593 28.3027 158.742 28.2 158.966 28.2H159.862C160.086 28.2 160.236 28.3027 160.31 28.508L163.782 37.566L163.81 37.72C163.81 37.7947 163.778 37.86 163.712 37.916C163.656 37.972 163.591 38 163.516 38H162.858C162.765 38 162.686 37.9767 162.62 37.93C162.564 37.874 162.527 37.818 162.508 37.762L161.724 35.746H157.09L156.32 37.762C156.246 37.9207 156.129 38 155.97 38H155.298ZM157.496 34.584H161.332L159.414 29.558L157.496 34.584ZM4.354 60.14C3.58867 60.14 2.92133 60.0187 2.352 59.776C1.792 59.5333 1.36267 59.216 1.064 58.824C0.774667 58.4227 0.620667 57.9933 0.602 57.536C0.602 57.4613 0.63 57.396 0.686 57.34C0.742 57.284 0.812 57.256 0.896 57.256H1.582C1.75 57.256 1.86667 57.3493 1.932 57.536C2.016 57.928 2.254 58.2687 2.646 58.558C3.04733 58.838 3.61667 58.978 4.354 58.978C5.14733 58.978 5.74 58.838 6.132 58.558C6.524 58.278 6.72 57.8907 6.72 57.396C6.72 57.0787 6.622 56.8173 6.426 56.612C6.23933 56.4067 5.95467 56.2293 5.572 56.08C5.19867 55.9213 4.634 55.73 3.878 55.506C3.15933 55.3007 2.58533 55.0813 2.156 54.848C1.736 54.6147 1.41867 54.33 1.204 53.994C0.989333 53.6487 0.882 53.2147 0.882 52.692C0.882 52.188 1.01733 51.74 1.288 51.348C1.55867 50.9467 1.95067 50.634 2.464 50.41C2.97733 50.1767 3.584 50.06 4.284 50.06C5.012 50.06 5.63267 50.1907 6.146 50.452C6.66867 50.704 7.06533 51.026 7.336 51.418C7.60667 51.8007 7.75133 52.188 7.77 52.58C7.77 52.664 7.742 52.734 7.686 52.79C7.63 52.846 7.56 52.874 7.476 52.874H6.776C6.70133 52.874 6.63133 52.8507 6.566 52.804C6.50067 52.7573 6.454 52.6873 6.426 52.594C6.37 52.1927 6.146 51.8613 5.754 51.6C5.362 51.3387 4.872 51.208 4.284 51.208C3.64933 51.208 3.14533 51.334 2.772 51.586C2.39867 51.8287 2.212 52.1927 2.212 52.678C2.212 53.0047 2.296 53.2707 2.464 53.476C2.64133 53.6813 2.90733 53.8633 3.262 54.022C3.626 54.1807 4.15333 54.3627 4.844 54.568C5.63733 54.792 6.258 55.016 6.706 55.24C7.16333 55.464 7.504 55.744 7.728 56.08C7.952 56.4067 8.064 56.8313 8.064 57.354C8.064 58.2313 7.728 58.9173 7.056 59.412C6.39333 59.8973 5.49267 60.14 4.354 60.14ZM12.4476 60.14C11.561 60.14 10.875 59.8553 10.3896 59.286C9.90431 58.7073 9.66164 57.942 9.66164 56.99V53.042C9.66164 52.9487 9.68964 52.874 9.74564 52.818C9.81097 52.7527 9.89031 52.72 9.98364 52.72H10.6276C10.721 52.72 10.7956 52.7527 10.8516 52.818C10.917 52.874 10.9496 52.9487 10.9496 53.042V56.92C10.9496 58.3387 11.5656 59.048 12.7976 59.048C13.395 59.048 13.8663 58.8613 14.2116 58.488C14.5663 58.1053 14.7436 57.5827 14.7436 56.92V53.042C14.7436 52.9487 14.7716 52.874 14.8276 52.818C14.893 52.7527 14.9723 52.72 15.0656 52.72H15.7096C15.803 52.72 15.8776 52.7527 15.9336 52.818C15.999 52.874 16.0316 52.9487 16.0316 53.042V59.678C16.0316 59.7713 15.999 59.8507 15.9336 59.916C15.8776 59.972 15.803 60 15.7096 60H15.1076C15.0143 60 14.935 59.972 14.8696 59.916C14.8136 59.8507 14.7856 59.7713 14.7856 59.678V59.048C14.515 59.412 14.1976 59.6873 13.8336 59.874C13.4696 60.0513 13.0076 60.14 12.4476 60.14ZM21.0382 60.14C20.0395 60.14 19.2602 59.86 18.7002 59.3C18.1402 58.7307 17.8462 57.9373 17.8182 56.92L17.8042 56.36L17.8182 55.8C17.8462 54.7827 18.1402 53.994 18.7002 53.434C19.2602 52.8647 20.0395 52.58 21.0382 52.58C21.7102 52.58 22.2748 52.7013 22.7322 52.944C23.1988 53.1773 23.5442 53.4713 23.7682 53.826C24.0015 54.1807 24.1275 54.5353 24.1462 54.89C24.1555 54.974 24.1228 55.0487 24.0482 55.114C23.9828 55.1793 23.9082 55.212 23.8242 55.212H23.2082C23.1148 55.212 23.0448 55.1933 22.9982 55.156C22.9515 55.1093 22.9048 55.03 22.8582 54.918C22.6902 54.4607 22.4568 54.1387 22.1582 53.952C21.8688 53.756 21.5002 53.658 21.0522 53.658C20.4642 53.658 19.9975 53.84 19.6522 54.204C19.3068 54.568 19.1202 55.1233 19.0922 55.87L19.0782 56.36L19.0922 56.85C19.1202 57.5967 19.3068 58.152 19.6522 58.516C19.9975 58.88 20.4642 59.062 21.0522 59.062C21.5095 59.062 21.8828 58.9687 22.1722 58.782C22.4615 58.586 22.6902 58.2593 22.8582 57.802C22.9048 57.69 22.9515 57.6153 22.9982 57.578C23.0448 57.5313 23.1148 57.508 23.2082 57.508H23.8242C23.9082 57.508 23.9828 57.5407 24.0482 57.606C24.1228 57.6713 24.1555 57.746 24.1462 57.83C24.1275 58.1753 24.0015 58.5253 23.7682 58.88C23.5442 59.2347 23.1988 59.5333 22.7322 59.776C22.2748 60.0187 21.7102 60.14 21.0382 60.14ZM28.7354 60.14C27.7368 60.14 26.9574 59.86 26.3974 59.3C25.8374 58.7307 25.5434 57.9373 25.5154 56.92L25.5014 56.36L25.5154 55.8C25.5434 54.7827 25.8374 53.994 26.3974 53.434C26.9574 52.8647 27.7368 52.58 28.7354 52.58C29.4074 52.58 29.9721 52.7013 30.4294 52.944C30.8961 53.1773 31.2414 53.4713 31.4654 53.826C31.6988 54.1807 31.8248 54.5353 31.8434 54.89C31.8528 54.974 31.8201 55.0487 31.7454 55.114C31.6801 55.1793 31.6054 55.212 31.5214 55.212H30.9054C30.8121 55.212 30.7421 55.1933 30.6954 55.156C30.6488 55.1093 30.6021 55.03 30.5554 54.918C30.3874 54.4607 30.1541 54.1387 29.8554 53.952C29.5661 53.756 29.1974 53.658 28.7494 53.658C28.1614 53.658 27.6948 53.84 27.3494 54.204C27.0041 54.568 26.8174 55.1233 26.7894 55.87L26.7754 56.36L26.7894 56.85C26.8174 57.5967 27.0041 58.152 27.3494 58.516C27.6948 58.88 28.1614 59.062 28.7494 59.062C29.2068 59.062 29.5801 58.9687 29.8694 58.782C30.1588 58.586 30.3874 58.2593 30.5554 57.802C30.6021 57.69 30.6488 57.6153 30.6954 57.578C30.7421 57.5313 30.8121 57.508 30.9054 57.508H31.5214C31.6054 57.508 31.6801 57.5407 31.7454 57.606C31.8201 57.6713 31.8528 57.746 31.8434 57.83C31.8248 58.1753 31.6988 58.5253 31.4654 58.88C31.2414 59.2347 30.8961 59.5333 30.4294 59.776C29.9721 60.0187 29.4074 60.14 28.7354 60.14ZM36.4047 60.14C35.4527 60.14 34.692 59.846 34.1227 59.258C33.5534 58.6607 33.2407 57.8487 33.1847 56.822L33.1707 56.346L33.1847 55.884C33.2407 54.876 33.5534 54.0733 34.1227 53.476C34.692 52.8787 35.4527 52.58 36.4047 52.58C37.4314 52.58 38.2247 52.9067 38.7847 53.56C39.354 54.2133 39.6387 55.1 39.6387 56.22V56.472C39.6387 56.5653 39.606 56.6447 39.5407 56.71C39.4847 56.766 39.41 56.794 39.3167 56.794H34.4587V56.92C34.4867 57.5267 34.6734 58.0447 35.0187 58.474C35.364 58.9033 35.8214 59.118 36.3907 59.118C36.8294 59.118 37.184 59.034 37.4547 58.866C37.7347 58.6887 37.9447 58.5067 38.0847 58.32C38.1687 58.208 38.234 58.1427 38.2807 58.124C38.3274 58.096 38.4067 58.082 38.5187 58.082H39.1347C39.2187 58.082 39.2887 58.1053 39.3447 58.152C39.41 58.1987 39.4427 58.2593 39.4427 58.334C39.4427 58.5393 39.3167 58.7867 39.0647 59.076C38.8127 59.3653 38.4534 59.6173 37.9867 59.832C37.5294 60.0373 37.002 60.14 36.4047 60.14ZM38.3647 55.842V55.8C38.3647 55.1467 38.1874 54.6147 37.8327 54.204C37.478 53.7933 37.002 53.588 36.4047 53.588C35.798 53.588 35.322 53.7933 34.9767 54.204C34.6314 54.6147 34.4587 55.1467 34.4587 55.8V55.842H38.3647ZM43.833 60.14C43.189 60.14 42.643 60.0373 42.195 59.832C41.7563 59.6173 41.4297 59.3747 41.215 59.104C41.0003 58.8333 40.893 58.6093 40.893 58.432C40.893 58.3387 40.9257 58.2687 40.991 58.222C41.0563 58.166 41.1263 58.138 41.201 58.138H41.789C41.845 58.138 41.887 58.1473 41.915 58.166C41.9523 58.1847 41.999 58.2267 42.055 58.292C42.2697 58.5533 42.5077 58.7587 42.769 58.908C43.0397 59.0573 43.399 59.132 43.847 59.132C44.351 59.132 44.7523 59.0387 45.051 58.852C45.359 58.6653 45.513 58.3947 45.513 58.04C45.513 57.8067 45.4477 57.62 45.317 57.48C45.1863 57.34 44.967 57.214 44.659 57.102C44.3603 56.99 43.9123 56.8687 43.315 56.738C42.503 56.5607 41.929 56.304 41.593 55.968C41.257 55.632 41.089 55.198 41.089 54.666C41.089 54.3207 41.1917 53.9893 41.397 53.672C41.6023 53.3453 41.9057 53.084 42.307 52.888C42.7177 52.6827 43.203 52.58 43.763 52.58C44.351 52.58 44.8503 52.678 45.261 52.874C45.681 53.07 45.9937 53.2987 46.199 53.56C46.4137 53.8213 46.521 54.0407 46.521 54.218C46.521 54.302 46.4883 54.372 46.423 54.428C46.367 54.484 46.297 54.512 46.213 54.512H45.681C45.5503 54.512 45.457 54.4607 45.401 54.358C45.2423 54.1807 45.107 54.0453 44.995 53.952C44.8923 53.8493 44.7383 53.7653 44.533 53.7C44.3277 53.6253 44.071 53.588 43.763 53.588C43.3057 53.588 42.9557 53.686 42.713 53.882C42.4703 54.0687 42.349 54.3207 42.349 54.638C42.349 54.834 42.4003 55.002 42.503 55.142C42.6057 55.2727 42.8017 55.3987 43.091 55.52C43.3803 55.632 43.8097 55.7487 44.379 55.87C45.2657 56.0567 45.891 56.3227 46.255 56.668C46.6283 57.0133 46.815 57.4567 46.815 57.998C46.815 58.3993 46.6983 58.7633 46.465 59.09C46.241 59.4167 45.9003 59.6733 45.443 59.86C44.995 60.0467 44.4583 60.14 43.833 60.14ZM50.9424 60.14C50.2984 60.14 49.7524 60.0373 49.3044 59.832C48.8657 59.6173 48.5391 59.3747 48.3244 59.104C48.1097 58.8333 48.0024 58.6093 48.0024 58.432C48.0024 58.3387 48.0351 58.2687 48.1004 58.222C48.1657 58.166 48.2357 58.138 48.3104 58.138H48.8984C48.9544 58.138 48.9964 58.1473 49.0244 58.166C49.0617 58.1847 49.1084 58.2267 49.1644 58.292C49.3791 58.5533 49.6171 58.7587 49.8784 58.908C50.1491 59.0573 50.5084 59.132 50.9564 59.132C51.4604 59.132 51.8617 59.0387 52.1604 58.852C52.4684 58.6653 52.6224 58.3947 52.6224 58.04C52.6224 57.8067 52.5571 57.62 52.4264 57.48C52.2957 57.34 52.0764 57.214 51.7684 57.102C51.4697 56.99 51.0217 56.8687 50.4244 56.738C49.6124 56.5607 49.0384 56.304 48.7024 55.968C48.3664 55.632 48.1984 55.198 48.1984 54.666C48.1984 54.3207 48.3011 53.9893 48.5064 53.672C48.7117 53.3453 49.0151 53.084 49.4164 52.888C49.8271 52.6827 50.3124 52.58 50.8724 52.58C51.4604 52.58 51.9597 52.678 52.3704 52.874C52.7904 53.07 53.1031 53.2987 53.3084 53.56C53.5231 53.8213 53.6304 54.0407 53.6304 54.218C53.6304 54.302 53.5977 54.372 53.5324 54.428C53.4764 54.484 53.4064 54.512 53.3224 54.512H52.7904C52.6597 54.512 52.5664 54.4607 52.5104 54.358C52.3517 54.1807 52.2164 54.0453 52.1044 53.952C52.0017 53.8493 51.8477 53.7653 51.6424 53.7C51.4371 53.6253 51.1804 53.588 50.8724 53.588C50.4151 53.588 50.0651 53.686 49.8224 53.882C49.5797 54.0687 49.4584 54.3207 49.4584 54.638C49.4584 54.834 49.5097 55.002 49.6124 55.142C49.7151 55.2727 49.9111 55.3987 50.2004 55.52C50.4897 55.632 50.9191 55.7487 51.4884 55.87C52.3751 56.0567 53.0004 56.3227 53.3644 56.668C53.7377 57.0133 53.9244 57.4567 53.9244 57.998C53.9244 58.3993 53.8077 58.7633 53.5744 59.09C53.3504 59.4167 53.0097 59.6733 52.5524 59.86C52.1044 60.0467 51.5677 60.14 50.9424 60.14ZM55.7838 60C55.6904 60 55.6111 59.972 55.5458 59.916C55.4898 59.8507 55.4618 59.7713 55.4618 59.678V58.712C55.4618 58.6187 55.4898 58.5393 55.5458 58.474C55.6111 58.4087 55.6904 58.376 55.7838 58.376H56.7498C56.8431 58.376 56.9178 58.4087 56.9738 58.474C57.0391 58.5393 57.0718 58.6187 57.0718 58.712V59.678C57.0718 59.7713 57.0391 59.8507 56.9738 59.916C56.9178 59.972 56.8431 60 56.7498 60H55.7838Z" fill="#363940"/>
</g>
<defs>
<clipPath id="clip0_0_7928">
<rect width="180" height="106" fill="white"/>
</clipPath>
</defs>
</svg>
